<?xml version="1.0" encoding="UTF-8"?><svg id="Layer_1" xmlns="http://www.w3.org/2000/svg" viewBox="0 0 675 95.42"><defs><style>.cls-1{fill:#0056d2;}</style></defs><path class="cls-1" d="M93.34,47.64C93.34,21.65,114.75.63,141.51.63s48.36,21.04,48.36,47.02-21.41,47.21-48.36,47.21-48.17-21.43-48.17-47.21ZM166.74,47.64c0-13-11.28-24.47-25.23-24.47s-25.04,11.47-25.04,24.47,11.28,24.66,25.04,24.66,25.23-11.47,25.23-24.66ZM579.05,48.41c0-28.48,23.13-47.79,44.16-47.79,14.33,0,22.55,4.39,28.09,12.81l2.2-11.1h21.5v90.8h-21.5l-2.78-9.35c-6.3,6.88-14.15,11.1-27.52,11.1-20.64-.03-44.16-18.19-44.16-46.48h0ZM652.45,48.22c-.05-13.75-11.38-25.03-25.13-25.03s-25.13,11.34-25.13,25.13v.1c0,12.62,11.28,23.89,25.04,23.89s25.21-11.28,25.21-24.09ZM552.63,12.85V2.34h-23.51v90.8h23.51v-48.92c0-14.72,7.27-22.36,19.87-22.36.84,0,1.63.06,2.41.13L579.27.06c-12.25.06-21.13,4.27-26.63,12.79h0ZM316.41,12.86V2.34l-23.51.05.2,90.78,23.51-.05-.13-48.92c-.04-14.71,7.22-22.37,19.83-22.4.8,0,1.61.05,2.41.13l4.34-21.94c-12.27.1-21.16,4.32-26.64,12.86h0ZM198.01,57.96V2.34h23.5v52.76c0,11.66,6.5,18.54,17.77,18.54,12.62,0,19.87-7.65,19.87-22.37V2.34h23.51v90.79h-23.5v-10.52c-5.54,8.6-14.53,12.81-26.95,12.81-21.02,0-34.21-15.29-34.21-37.46h0ZM426.91,47.75c.05-25.42,18.25-47.18,47.11-47.12,26.76.05,45.64,21.49,45.58,46.75,0,2.5-.19,4.99-.58,7.46l-69.19-.13c2.65,10.9,11.62,18.75,25.2,18.78,8.22,0,17.02-3.03,22.38-9.9l16.03,12.85c-8.24,11.65-22.79,18.5-38.26,18.47-27.32-.09-48.31-20.59-48.26-47.15ZM495.93,38.32c-1.32-9.17-10.86-16.27-22.14-16.28-10.9,0-19.7,6.46-23.16,16.2l45.3.08ZM343.19,73.34l20.9-10.94c3.45,7.49,10.36,11.9,20.15,11.9,9.02,0,12.47-2.87,12.47-6.91,0-14.61-49.5-5.76-49.5-39.15C347.21,9.83,363.32.05,383.27.05c15.16,0,28.58,6.71,35.88,19.18l-20.71,10.96c-3.07-6.14-8.82-9.59-16.12-9.59s-10.55,2.5-10.55,6.71c0,14.2,49.5,5.18,49.5,39.15,0,17.65-14.39,28.39-37.6,28.39-19.76-.02-33.57-6.54-40.48-21.5ZM0,47.64C0,21.46,21.4.43,48.17.43c16.33-.11,31.66,8.03,40.71,21.62l-20.07,11.64c-4.71-6.73-12.43-10.73-20.64-10.7-13.76,0-25.04,11.47-25.04,24.66s11.28,24.66,25.04,24.66c8.62.05,16.65-4.37,21.22-11.69l19.87,11.85c-8.94,14-24.48,22.46-41.09,22.37-26.75.02-48.15-21.41-48.15-47.19Z"/></svg>