<svg version="1.1" id="Layer_1" xmlns="http://www.w3.org/2000/svg" xmlns:xlink="http://www.w3.org/1999/xlink" x="0px" y="0px"
	 width="100%" viewBox="0 0 651 565" enable-background="new 0 0 651 565" xml:space="preserve">
<path fill="#010101" opacity="1.000000" stroke="none" 
	d="
M385.000000,566.000000 
	C256.666656,566.000000 128.833328,566.000000 1.000000,566.000000 
	C1.000000,377.666656 1.000000,189.333328 1.000000,1.000000 
	C218.000000,1.000000 435.000000,1.000000 652.000000,1.000000 
	C652.000000,189.333328 652.000000,377.666656 652.000000,566.000000 
	C563.166687,566.000000 474.333344,566.000000 385.000000,566.000000 
M549.463074,411.784698 
	C549.463074,411.784698 549.513428,411.328430 550.004517,410.832062 
	C551.936707,407.280182 553.953186,403.771240 555.787720,400.169556 
	C569.601135,373.050171 578.467102,344.342621 581.736816,314.130371 
	C588.226868,254.161255 576.568726,197.939926 543.674866,147.084564 
	C502.810394,83.906441 444.896851,45.481987 370.596283,33.029137 
	C323.204193,25.086180 277.043182,30.932299 232.561279,49.416920 
	C215.029358,56.702370 198.794434,66.277260 183.303589,77.117348 
	C176.278702,82.033173 169.774170,87.692596 162.252960,92.996964 
	C161.581284,93.841087 160.909622,94.685204 159.921448,96.065346 
	C155.082443,100.773453 150.243423,105.481567 144.579330,110.089737 
	C139.553085,111.086823 136.187546,115.421791 137.229324,119.776443 
	C136.226257,120.878708 135.223190,121.980972 133.702896,122.802879 
	C132.390839,123.319588 131.005569,123.722832 129.843872,124.472527 
	C129.664963,124.587997 130.513931,126.296242 130.649658,127.958344 
	C106.548431,159.375687 90.333656,194.403397 82.562996,233.268326 
	C74.626213,272.964050 75.925644,312.367798 86.351677,351.495697 
	C92.827606,375.799194 103.200516,398.386597 115.959938,420.789825 
	C116.163124,423.783539 115.258339,427.613281 120.957153,427.139221 
	C121.287590,427.806152 121.618034,428.473114 121.973244,429.798828 
	C122.900269,430.875519 123.827293,431.952240 124.973862,433.445282 
	C124.973862,433.445282 125.039993,433.911316 124.734856,434.593811 
	C124.485771,436.630524 124.236687,438.667206 123.987602,440.703918 
	C125.427162,439.754242 126.866722,438.804596 128.833115,438.109009 
	C129.307373,438.726990 129.781631,439.345001 130.105118,440.575897 
	C130.784897,441.251831 131.464676,441.927765 132.211151,443.298035 
	C133.118805,444.207672 134.026459,445.117310 135.055313,446.710754 
	C136.978516,448.612305 138.901718,450.513855 141.061401,453.019043 
	C142.159576,454.267334 143.239090,455.532654 144.358627,456.761505 
	C172.696991,487.867188 207.124649,509.878540 246.264038,524.775879 
	C259.281036,529.730347 269.245056,522.193176 267.878265,509.699310 
	C267.626099,507.394379 267.768524,505.043823 267.766937,502.714325 
	C267.758820,490.779022 267.763184,478.843750 267.763184,466.609344 
	C265.490723,466.850281 264.203918,467.035065 262.910583,467.116119 
	C252.487625,467.769531 241.990875,469.495026 231.655304,468.807831 
	C212.300247,467.520935 195.872391,459.631012 185.564499,442.343445 
	C180.353683,433.604248 176.251450,424.204071 172.432220,414.945953 
	C172.888672,414.521667 173.678772,414.147400 173.750961,413.665588 
	C174.672806,407.513092 170.073151,409.343994 166.992630,409.017822 
	C166.992630,409.017822 166.966232,409.049927 167.015823,408.392944 
	C166.348724,407.911682 165.681625,407.430420 164.610397,406.881409 
	C164.610397,406.881409 164.202362,406.919159 164.008072,406.404785 
	C163.544708,405.849091 163.081360,405.293365 162.797562,403.921783 
	C161.955338,401.452667 161.113098,398.983582 160.343674,396.727905 
	C158.072510,397.447601 156.120895,398.066071 153.575668,398.427307 
	C150.766968,395.692261 147.958267,392.957214 145.952560,389.975281 
	C146.624893,388.293121 147.297226,386.610992 148.454941,384.481476 
	C149.313873,384.361938 150.172821,384.242401 151.594772,384.658661 
	C154.383972,384.495697 157.173157,384.332703 160.735291,384.071808 
	C167.784546,387.397675 174.833786,390.723572 182.120453,394.683411 
	C184.862030,397.404663 187.603607,400.125946 190.594437,403.421478 
	C191.756775,404.938019 192.919113,406.454559 194.059799,408.697021 
	C195.381577,410.776367 196.703354,412.855713 198.204071,415.642578 
	C199.452484,417.137817 200.700897,418.633057 201.618698,420.844391 
	C201.404694,423.035980 201.190689,425.227600 200.957932,427.611176 
	C203.477539,427.862732 205.242615,428.038971 206.486176,428.163116 
	C207.260422,430.179810 207.684540,433.166809 208.592697,433.322021 
	C212.392960,433.971588 216.338379,433.771820 220.977127,433.924683 
	C235.175125,439.266693 249.188293,437.845673 263.185425,432.975922 
	C266.922272,431.675842 269.360687,429.991394 269.682129,425.559174 
	C269.915619,422.339386 271.343628,419.206207 272.858948,415.938232 
	C273.246887,414.627197 273.634827,413.316193 274.081696,411.296448 
	C276.307831,407.825806 278.533936,404.355164 281.581451,400.942200 
	C282.703369,399.964630 283.825256,398.987061 284.947174,398.009521 
	C283.971497,397.310181 282.995789,396.610809 281.162445,396.029175 
	C267.743408,393.137238 254.135696,390.912079 240.953995,387.181519 
	C225.120575,382.700500 210.546783,375.482178 200.000595,361.349365 
	C198.704239,358.447113 198.851685,354.059113 193.062820,354.841522 
	C189.840317,350.434052 185.597977,346.444458 183.588577,341.539948 
	C177.810425,327.436768 172.871307,313.028168 170.922226,297.717194 
	C166.557434,263.429840 170.116409,231.226913 194.028763,203.936188 
	C194.692291,203.178894 194.801605,201.424194 194.454575,200.369843 
	C189.033585,183.899689 189.238358,167.288452 192.949753,150.556656 
	C196.635742,133.939270 199.910980,132.055573 216.651169,136.442383 
	C233.468170,140.849335 248.487930,148.987411 262.847809,158.475159 
	C265.826843,160.443451 268.456665,161.100677 272.070312,160.199890 
	C311.624939,150.339798 351.185089,150.547562 390.755981,160.358780 
	C392.789398,160.862961 395.535309,159.905334 397.545959,158.855438 
	C408.737762,153.011520 419.590820,146.477570 430.983429,141.072784 
	C439.858765,136.862213 449.433624,134.162598 459.487335,134.858124 
	C461.193695,134.976166 463.772675,136.348038 464.286499,137.749863 
	C471.637421,157.804550 473.700195,178.208374 467.094086,198.908096 
	C466.225220,201.630615 466.555298,203.355240 468.442261,205.532272 
	C477.729645,216.247498 484.367798,228.434799 488.082245,242.181747 
	C494.519165,266.004425 492.428864,289.750854 487.280853,313.402405 
	C483.820770,329.298981 477.059265,343.722351 465.782623,356.135193 
	C463.878998,358.476196 461.975372,360.817169 459.823975,363.774750 
	C436.813751,385.354767 408.208221,392.710907 377.589966,395.494446 
	C374.520447,399.135803 376.634521,402.702850 382.994904,404.183655 
	C383.676697,405.425110 384.358459,406.666534 384.910309,408.611633 
	C384.108032,410.728699 384.051025,412.358612 387.563446,412.322632 
	C387.699402,412.884491 387.835358,413.446381 387.529907,414.320282 
	C387.937836,414.888672 388.345795,415.457092 389.165161,416.667084 
	C390.452728,422.987549 392.744965,429.291229 392.850891,435.631439 
	C393.270142,460.722931 392.999695,485.825867 392.995239,510.924561 
	C392.992981,523.625977 400.472290,529.112793 412.587585,525.054810 
	C419.025116,522.898560 425.302399,520.263977 432.360260,517.978027 
	C433.252655,517.439819 434.145050,516.901672 435.611023,515.905884 
	C439.896667,513.840820 444.182312,511.775726 449.155762,510.049591 
	C453.473419,512.215820 453.840698,508.538727 455.487427,505.570404 
	C462.315338,500.994354 469.143250,496.418304 476.473114,492.019592 
	C476.650543,492.022736 476.827972,492.025909 477.415771,492.510559 
	C480.025238,492.510559 482.634735,492.510559 485.596893,492.510559 
	C484.469147,490.036469 483.749756,488.458313 483.715485,486.806335 
	C486.761017,484.330353 489.823761,481.875214 492.849274,479.375031 
	C512.608704,463.046539 528.952026,443.726074 543.345886,421.916351 
	C544.616333,419.647064 545.886780,417.377747 547.027649,415.060059 
	C547.027649,415.060059 547.128845,415.154358 547.686035,414.844696 
	C548.143311,413.896576 548.600586,412.948456 549.463074,411.784698 
M443.403625,514.482849 
	C443.403625,514.482849 443.520477,514.412598 443.403625,514.482849 
z"/>
<path fill="#FDFDFD" opacity="1.000000" stroke="none" 
	d="
M431.652039,517.845337 
	C425.302399,520.263977 419.025116,522.898560 412.587585,525.054810 
	C400.472290,529.112793 392.992981,523.625977 392.995239,510.924561 
	C392.999695,485.825867 393.270142,460.722931 392.850891,435.631439 
	C392.744965,429.291229 390.452728,422.987549 388.999023,416.060120 
	C388.545685,414.971527 388.258514,414.489899 387.971344,414.008240 
	C387.835358,413.446381 387.699402,412.884491 387.341583,411.801178 
	C386.426575,410.155823 385.733398,409.031891 385.040253,407.907990 
	C384.358459,406.666534 383.676697,405.425110 382.657410,403.649780 
	C380.876465,400.732697 379.432983,398.349457 377.989532,395.966248 
	C408.208221,392.710907 436.813751,385.354767 460.269287,363.364563 
	C462.656342,360.724518 464.598083,358.494659 466.539856,356.264832 
	C477.059265,343.722351 483.820770,329.298981 487.280853,313.402405 
	C492.428864,289.750854 494.519165,266.004425 488.082245,242.181747 
	C484.367798,228.434799 477.729645,216.247498 468.442261,205.532272 
	C466.555298,203.355240 466.225220,201.630615 467.094086,198.908096 
	C473.700195,178.208374 471.637421,157.804550 464.286499,137.749863 
	C463.772675,136.348038 461.193695,134.976166 459.487335,134.858124 
	C449.433624,134.162598 439.858765,136.862213 430.983429,141.072784 
	C419.590820,146.477570 408.737762,153.011520 397.545959,158.855438 
	C395.535309,159.905334 392.789398,160.862961 390.755981,160.358780 
	C351.185089,150.547562 311.624939,150.339798 272.070312,160.199890 
	C268.456665,161.100677 265.826843,160.443451 262.847809,158.475159 
	C248.487930,148.987411 233.468170,140.849335 216.651169,136.442383 
	C199.910980,132.055573 196.635742,133.939270 192.949753,150.556656 
	C189.238358,167.288452 189.033585,183.899689 194.454575,200.369843 
	C194.801605,201.424194 194.692291,203.178894 194.028763,203.936188 
	C170.116409,231.226913 166.557434,263.429840 170.922226,297.717194 
	C172.871307,313.028168 177.810425,327.436768 183.588577,341.539948 
	C185.597977,346.444458 189.840317,350.434052 193.478149,355.327332 
	C195.911926,357.912994 197.930374,360.012878 199.948822,362.112732 
	C210.546783,375.482178 225.120575,382.700500 240.953995,387.181519 
	C254.135696,390.912079 267.743408,393.137238 281.887695,396.177612 
	C281.995331,397.845551 281.377716,399.365051 280.760071,400.884521 
	C278.533936,404.355164 276.307831,407.825806 273.792603,411.847473 
	C273.082031,413.610504 272.660553,414.822449 272.239044,416.034424 
	C271.343628,419.206207 269.915619,422.339386 269.682129,425.559174 
	C269.360687,429.991394 266.922272,431.675842 263.185425,432.975922 
	C249.188293,437.845673 235.175125,439.266693 220.396072,433.627228 
	C215.827499,430.659637 211.839966,427.989502 207.880646,424.932617 
	C206.161118,423.081635 204.413376,421.617340 202.486877,420.137634 
	C202.308105,420.122223 201.949295,420.128296 201.949295,420.128296 
	C200.700897,418.633057 199.452484,417.137817 198.141006,414.895935 
	C198.140884,411.187408 197.667450,408.572540 194.081451,407.971100 
	C192.919113,406.454559 191.756775,404.938019 190.644196,402.729034 
	C191.310608,400.252441 191.927277,398.468292 192.525848,396.736481 
	C188.891754,395.818970 185.387390,394.934235 181.883026,394.049500 
	C174.833786,390.723572 167.784546,387.397675 160.013245,383.943329 
	C156.538040,383.917511 153.784897,384.020203 151.031754,384.122864 
	C150.172821,384.242401 149.313873,384.361938 147.875702,384.691528 
	C145.117767,386.084747 143.219070,387.380890 145.149567,390.222168 
	C147.958267,392.957214 150.766968,395.692261 154.057938,398.800323 
	C155.549347,399.856110 156.558487,400.538879 157.427155,401.615845 
	C157.007019,405.438446 158.497925,405.649902 161.273376,404.136597 
	C161.912170,404.396790 162.265091,404.567230 162.618011,404.737671 
	C163.081360,405.293365 163.544708,405.849091 163.828888,406.839142 
	C163.623367,411.596985 166.429031,413.190369 170.318420,414.063782 
	C170.912216,414.481445 171.280106,414.792084 171.647980,415.102753 
	C176.251450,424.204071 180.353683,433.604248 185.564499,442.343445 
	C195.872391,459.631012 212.300247,467.520935 231.655304,468.807831 
	C241.990875,469.495026 252.487625,467.769531 262.910583,467.116119 
	C264.203918,467.035065 265.490723,466.850281 267.763184,466.609344 
	C267.763184,478.843750 267.758820,490.779022 267.766937,502.714325 
	C267.768524,505.043823 267.626099,507.394379 267.878265,509.699310 
	C269.245056,522.193176 259.281036,529.730347 246.264038,524.775879 
	C207.124649,509.878540 172.696991,487.867188 144.358627,456.761505 
	C143.239090,455.532654 142.159576,454.267334 141.020508,452.348267 
	C142.505508,446.005432 138.386932,446.372345 134.934113,446.026947 
	C134.026459,445.117310 133.118805,444.207672 132.206451,442.635864 
	C131.553116,441.303467 130.904495,440.633240 130.255859,439.963013 
	C129.781631,439.345001 129.307373,438.726990 128.477417,437.635132 
	C127.094475,436.077911 126.067245,434.994598 125.040001,433.911316 
	C125.039993,433.911316 124.973862,433.445282 124.913483,432.892944 
	C123.884903,431.273773 122.916687,430.206909 121.948471,429.140045 
	C121.618034,428.473114 121.287590,427.806152 120.630859,426.633423 
	C118.873970,424.061798 117.443367,421.995911 116.012764,419.930054 
	C103.200516,398.386597 92.827606,375.799194 86.351677,351.495697 
	C75.925644,312.367798 74.626213,272.964050 82.562996,233.268326 
	C90.333656,194.403397 106.548431,159.375687 131.037018,127.486481 
	C132.356277,125.704163 133.288193,124.393700 134.220123,123.083237 
	C135.223190,121.980972 136.226257,120.878708 137.654510,119.345924 
	C140.521255,116.006828 142.962845,113.098251 145.404419,110.189674 
	C150.243423,105.481567 155.082443,100.773453 160.388138,95.694443 
	C161.581070,94.553932 162.307327,93.784317 163.033585,93.014694 
	C169.774170,87.692596 176.278702,82.033173 183.303589,77.117348 
	C198.794434,66.277260 215.029358,56.702370 232.561279,49.416920 
	C277.043182,30.932299 323.204193,25.086180 370.596283,33.029137 
	C444.896851,45.481987 502.810394,83.906441 543.674866,147.084564 
	C576.568726,197.939926 588.226868,254.161255 581.736816,314.130371 
	C578.467102,344.342621 569.601135,373.050171 555.787720,400.169556 
	C553.953186,403.771240 551.936707,407.280182 549.425415,410.907959 
	C547.747192,410.901520 546.648071,410.819153 545.548889,410.736816 
	C546.045227,411.156769 546.541565,411.576752 547.023804,412.392090 
	C547.049438,413.576447 547.089111,414.365417 547.128845,415.154358 
	C547.128845,415.154358 547.027649,415.060059 546.699097,415.056458 
	C544.026001,416.216064 541.681396,417.379303 538.718323,418.849396 
	C540.431152,420.265778 541.634583,421.260956 542.838013,422.256104 
	C528.952026,443.726074 512.608704,463.046539 492.849274,479.375031 
	C489.823761,481.875214 486.761017,484.330353 483.239441,486.538635 
	C481.930176,487.198883 481.096954,488.126862 480.146912,488.677155 
	C478.223541,488.017609 476.417023,487.735809 474.610474,487.454010 
	C475.064026,488.916779 475.517609,490.379517 475.971161,491.842285 
	C469.143250,496.418304 462.315338,500.994354 454.910461,505.853088 
	C452.378326,507.327423 450.423126,508.519073 448.467957,509.710693 
	C444.182312,511.775726 439.896667,513.840820 435.003784,516.117126 
	C433.481689,516.834045 432.566864,517.339661 431.652039,517.845337 
M185.559189,392.292297 
	C185.290894,392.010773 185.022614,391.729248 184.754333,391.447723 
	C184.637878,391.559052 184.414001,391.760956 184.420471,391.768646 
	C184.670807,392.065552 184.942215,392.344727 185.559189,392.292297 
M140.480957,441.584381 
	C140.480957,441.584381 140.417862,441.478302 140.480957,441.584381 
z"/>
<path fill="#141414" opacity="1.000000" stroke="none" 
	d="
M201.783997,420.486328 
	C201.949295,420.128296 202.308105,420.122223 202.621246,420.446411 
	C204.573746,422.286865 206.213089,423.803101 207.852448,425.319336 
	C211.839966,427.989502 215.827499,430.659637 220.022827,433.606506 
	C216.338379,433.771820 212.392960,433.971588 208.592697,433.322021 
	C207.684540,433.166809 207.260422,430.179810 206.486176,428.163116 
	C205.242615,428.038971 203.477539,427.862732 200.957932,427.611176 
	C201.190689,425.227600 201.404694,423.035980 201.783997,420.486328 
z"/>
<path fill="#ECECEC" opacity="1.000000" stroke="none" 
	d="
M182.001740,394.366455 
	C185.387390,394.934235 188.891754,395.818970 192.525848,396.736481 
	C191.927277,398.468292 191.310608,400.252441 190.519562,402.441895 
	C187.603607,400.125946 184.862030,397.404663 182.001740,394.366455 
z"/>
<path fill="#1B1B1B" opacity="1.000000" stroke="none" 
	d="
M144.991882,110.139709 
	C142.962845,113.098251 140.521255,116.006828 137.795959,119.053955 
	C136.187546,115.421791 139.553085,111.086823 144.991882,110.139709 
z"/>
<path fill="#ECECEC" opacity="1.000000" stroke="none" 
	d="
M543.091919,422.086243 
	C541.634583,421.260956 540.431152,420.265778 538.718323,418.849396 
	C541.681396,417.379303 544.026001,416.216064 546.763916,415.080627 
	C545.886780,417.377747 544.616333,419.647064 543.091919,422.086243 
z"/>
<path fill="#141414" opacity="1.000000" stroke="none" 
	d="
M157.567627,401.221649 
	C156.558487,400.538879 155.549347,399.856110 154.354736,398.928925 
	C156.120895,398.066071 158.072510,397.447601 160.343674,396.727905 
	C161.113098,398.983582 161.955338,401.452667 162.707794,404.329712 
	C162.265091,404.567230 161.912170,404.396790 161.155594,403.831482 
	C159.690506,402.698303 158.629059,401.959961 157.567627,401.221649 
z"/>
<path fill="#171717" opacity="1.000000" stroke="none" 
	d="
M480.263794,489.054871 
	C481.096954,488.126862 481.930176,487.198883 482.896912,486.575531 
	C483.749756,488.458313 484.469147,490.036469 485.596893,492.510559 
	C482.634735,492.510559 480.025238,492.510559 477.351288,492.019775 
	C478.279114,490.704285 479.271454,489.879578 480.263794,489.054871 
z"/>
<path fill="#141414" opacity="1.000000" stroke="none" 
	d="
M172.040100,415.024353 
	C171.280106,414.792084 170.912216,414.481445 170.266617,413.736481 
	C168.976883,411.879303 167.964859,410.456482 166.952835,409.033630 
	C170.073151,409.343994 174.672806,407.513092 173.750961,413.665588 
	C173.678772,414.147400 172.888672,414.521667 172.040100,415.024353 
z"/>
<path fill="#121212" opacity="1.000000" stroke="none" 
	d="
M124.887436,434.252563 
	C126.067245,434.994598 127.094475,436.077911 128.213989,437.508057 
	C126.866722,438.804596 125.427162,439.754242 123.987602,440.703918 
	C124.236687,438.667206 124.485771,436.630524 124.887436,434.252563 
z"/>
<path fill="#EDEDED" opacity="1.000000" stroke="none" 
	d="
M480.146942,488.677185 
	C479.271454,489.879578 478.279114,490.704285 477.146088,491.779022 
	C476.827972,492.025909 476.650543,492.022736 476.222137,491.930939 
	C475.517609,490.379517 475.064026,488.916779 474.610474,487.454010 
	C476.417023,487.735809 478.223541,488.017609 480.146942,488.677185 
z"/>
<path fill="#151515" opacity="1.000000" stroke="none" 
	d="
M377.789734,395.730347 
	C379.432983,398.349457 380.876465,400.732697 382.419617,403.463806 
	C376.634521,402.702850 374.520447,399.135803 377.789734,395.730347 
z"/>
<path fill="#EBEBEB" opacity="1.000000" stroke="none" 
	d="
M134.994720,446.368835 
	C138.386932,446.372345 142.505508,446.005432 140.902267,452.046478 
	C138.901718,450.513855 136.978516,448.612305 134.994720,446.368835 
z"/>
<path fill="#E2E2E2" opacity="1.000000" stroke="none" 
	d="
M166.972733,409.025726 
	C167.964859,410.456482 168.976883,411.879303 170.040710,413.629456 
	C166.429031,413.190369 163.623367,411.596985 163.926041,407.096313 
	C164.202362,406.919159 164.610397,406.881409 164.889160,407.206604 
	C165.767349,408.037872 166.366791,408.543884 166.966232,409.049927 
	C166.966232,409.049927 166.992630,409.017822 166.972733,409.025726 
z"/>
<path fill="#1A1A1A" opacity="1.000000" stroke="none" 
	d="
M199.974701,361.731049 
	C197.930374,360.012878 195.911926,357.912994 193.771149,355.494965 
	C198.851685,354.059113 198.704239,358.447113 199.974701,361.731049 
z"/>
<path fill="#1C1C1C" opacity="1.000000" stroke="none" 
	d="
M448.811859,509.880127 
	C450.423126,508.519073 452.378326,507.327423 454.681946,506.106934 
	C453.840698,508.538727 453.473419,512.215820 448.811859,509.880127 
z"/>
<path fill="#1E1E1E" opacity="1.000000" stroke="none" 
	d="
M281.170776,400.913361 
	C281.377716,399.365051 281.995331,397.845551 282.316528,396.118774 
	C282.995789,396.610809 283.971497,397.310181 284.947174,398.009521 
	C283.825256,398.987061 282.703369,399.964630 281.170776,400.913361 
z"/>
<path fill="#1C1C1C" opacity="1.000000" stroke="none" 
	d="
M151.313263,384.390747 
	C153.784897,384.020203 156.538040,383.917511 159.626770,383.992279 
	C157.173157,384.332703 154.383972,384.495697 151.313263,384.390747 
z"/>
<path fill="#191919" opacity="1.000000" stroke="none" 
	d="
M115.986351,420.359924 
	C117.443367,421.995911 118.873970,424.061798 120.401932,426.466675 
	C115.258339,427.613281 116.163124,423.783539 115.986351,420.359924 
z"/>
<path fill="#ECECEC" opacity="1.000000" stroke="none" 
	d="
M194.070618,408.334045 
	C197.667450,408.572540 198.140884,411.187408 198.051544,414.542175 
	C196.703354,412.855713 195.381577,410.776367 194.070618,408.334045 
z"/>
<path fill="#1B1B1B" opacity="1.000000" stroke="none" 
	d="
M133.961517,122.943054 
	C133.288193,124.393700 132.356277,125.704163 131.155945,127.141243 
	C130.513931,126.296242 129.664963,124.587997 129.843872,124.472527 
	C131.005569,123.722832 132.390839,123.319588 133.961517,122.943054 
z"/>
<path fill="#1B1B1B" opacity="1.000000" stroke="none" 
	d="
M466.161255,356.200012 
	C464.598083,358.494659 462.656342,360.724518 460.393188,363.056274 
	C461.975372,360.817169 463.878998,358.476196 466.161255,356.200012 
z"/>
<path fill="#1C1C1C" opacity="1.000000" stroke="none" 
	d="
M145.551056,390.098724 
	C143.219070,387.380890 145.117767,386.084747 147.633026,384.915222 
	C147.297226,386.610992 146.624893,388.293121 145.551056,390.098724 
z"/>
<path fill="#151515" opacity="1.000000" stroke="none" 
	d="
M384.975281,408.259827 
	C385.733398,409.031891 386.426575,410.155823 387.109100,411.619568 
	C384.051025,412.358612 384.108032,410.728699 384.975281,408.259827 
z"/>
<path fill="#1E1E1E" opacity="1.000000" stroke="none" 
	d="
M272.549011,415.986328 
	C272.660553,414.822449 273.082031,413.610504 273.763153,412.201843 
	C273.634827,413.316193 273.246887,414.627197 272.549011,415.986328 
z"/>
<path fill="#191919" opacity="1.000000" stroke="none" 
	d="
M121.960861,429.469421 
	C122.916687,430.206909 123.884903,431.273773 124.803711,432.684784 
	C123.827293,431.952240 122.900269,430.875519 121.960861,429.469421 
z"/>
<path fill="#EDEDED" opacity="1.000000" stroke="none" 
	d="
M547.037903,411.996704 
	C546.541565,411.576752 546.045227,411.156769 545.548889,410.736816 
	C546.648071,410.819153 547.747192,410.901520 549.179932,411.156128 
	C549.513428,411.328430 549.463074,411.784698 548.923401,411.892151 
	C547.935120,411.998627 547.486511,411.997681 547.037903,411.996704 
z"/>
<path fill="#161616" opacity="1.000000" stroke="none" 
	d="
M432.006134,517.911621 
	C432.566864,517.339661 433.481689,516.834045 434.716980,516.345947 
	C434.145050,516.901672 433.252655,517.439819 432.006134,517.911621 
z"/>
<path fill="#DFDFDF" opacity="1.000000" stroke="none" 
	d="
M130.180481,440.269470 
	C130.904495,440.633240 131.553116,441.303467 132.173096,442.288696 
	C131.464676,441.927765 130.784897,441.251831 130.180481,440.269470 
z"/>
<path fill="#ECECEC" opacity="1.000000" stroke="none" 
	d="
M547.023804,412.392090 
	C547.486511,411.997681 547.935120,411.998627 548.720764,411.999969 
	C548.600586,412.948456 548.143311,413.896576 547.407471,414.999512 
	C547.089111,414.365417 547.049438,413.576447 547.023804,412.392090 
z"/>
<path fill="#141414" opacity="1.000000" stroke="none" 
	d="
M166.991028,408.721436 
	C166.366791,408.543884 165.767349,408.037872 165.091217,407.240479 
	C165.681625,407.430420 166.348724,407.911682 166.991028,408.721436 
z"/>
<path fill="#1B1B1B" opacity="1.000000" stroke="none" 
	d="
M162.643280,93.005829 
	C162.307327,93.784317 161.581070,94.553932 160.546387,95.426437 
	C160.909622,94.685204 161.581284,93.841087 162.643280,93.005829 
z"/>
<path fill="#151515" opacity="1.000000" stroke="none" 
	d="
M387.750610,414.164246 
	C388.258514,414.489899 388.545685,414.971527 388.793274,415.739319 
	C388.345795,415.457092 387.937836,414.888672 387.750610,414.164246 
z"/>
<path fill="#161616" opacity="1.000000" stroke="none" 
	d="
M443.462036,514.447754 
	C443.520477,514.412598 443.403625,514.482849 443.462036,514.447754 
z"/>
<path fill="#E8E8E8" opacity="1.000000" stroke="none" 
	d="
M207.880646,424.932617 
	C206.213089,423.803101 204.573746,422.286865 202.800018,420.461853 
	C204.413376,421.617340 206.161118,423.081635 207.880646,424.932617 
z"/>
<path fill="#E2E2E2" opacity="1.000000" stroke="none" 
	d="
M157.427155,401.615845 
	C158.629059,401.959961 159.690506,402.698303 160.869720,403.741760 
	C158.497925,405.649902 157.007019,405.438446 157.427155,401.615845 
z"/>
<path fill="#ECECEC" opacity="1.000000" stroke="none" 
	d="
M185.385010,392.459290 
	C184.942215,392.344727 184.670807,392.065552 184.420471,391.768646 
	C184.414001,391.760956 184.637878,391.559052 184.754333,391.447723 
	C185.022614,391.729248 185.290894,392.010773 185.385010,392.459290 
z"/>
<path fill="#EBEBEB" opacity="1.000000" stroke="none" 
	d="
M140.449402,441.531342 
	C140.417862,441.478302 140.480957,441.584381 140.449402,441.531342 
z"/>
</svg>