<svg version="1.1" id="Layer_1" xmlns="http://www.w3.org/2000/svg" xmlns:xlink="http://www.w3.org/1999/xlink" x="0px" y="0px"
	 width="100%" viewBox="0 0 260 401" enable-background="new 0 0 260 401" xml:space="preserve">
<path fill="#000000" opacity="1.000000" stroke="none" 
	d="
M261.000000,154.000000 
	C261.000000,237.000000 261.000000,319.500000 261.000000,402.000000 
	C174.333328,402.000000 87.666664,402.000000 1.000000,402.000000 
	C1.000000,268.333344 1.000000,134.666672 1.000000,1.000000 
	C87.666664,1.000000 174.333328,1.000000 261.000000,1.000000 
	C261.000000,51.833332 261.000000,102.666664 261.000000,154.000000 
M108.000702,236.500000 
	C108.000633,261.661041 108.069290,286.822540 107.904625,311.982483 
	C107.886162,314.803162 107.156624,317.981171 105.723045,320.374146 
	C92.684273,342.138458 79.393509,363.751678 66.235458,385.444855 
	C63.917519,389.266357 61.873768,393.254211 59.412216,397.689941 
	C107.652328,397.689941 154.973450,397.689941 203.040268,397.689941 
	C199.290482,391.400635 195.845917,385.672577 192.448990,379.916412 
	C182.877762,363.697784 173.622620,347.282654 163.659393,331.308899 
	C157.328491,321.158722 153.550720,310.994781 153.758377,298.586670 
	C154.413528,259.439484 153.999985,220.274384 153.999969,181.116211 
	C153.999969,179.189041 153.999954,177.261871 153.999954,175.275024 
	C147.689163,175.275024 142.099960,175.275024 136.226135,175.275024 
	C136.140259,176.485214 136.012756,177.445160 136.012543,178.405151 
	C136.001770,224.395172 135.927368,270.385559 136.148102,316.374512 
	C136.165039,319.906555 137.696823,323.762115 139.512405,326.894714 
	C145.750702,337.658142 152.463470,348.145599 158.920166,358.783936 
	C161.251144,362.624542 163.369614,366.594116 165.729065,370.759033 
	C142.331238,370.759033 119.583755,370.759033 96.677574,370.759033 
	C96.824181,370.024017 96.797165,369.480164 97.029785,369.091858 
	C104.348114,356.874329 111.632324,344.635651 119.056198,332.482330 
	C122.837708,326.291779 126.147514,320.236023 126.107819,312.480286 
	C125.883514,268.657593 125.999382,224.833191 125.999359,181.009369 
	C125.999359,179.092453 125.999352,177.175537 125.999352,175.312744 
	C119.611816,175.312744 114.022682,175.312744 108.000702,175.312744 
	C108.000702,195.581482 108.000702,215.540741 108.000702,236.500000 
M85.532417,152.765549 
	C94.117477,154.547195 101.428261,158.296036 106.063293,166.133240 
	C107.745842,168.978195 110.093063,170.116867 113.485573,170.065430 
	C124.644936,169.896255 135.809143,169.929688 146.970016,170.037186 
	C151.073853,170.076706 153.935684,168.350983 155.996475,164.949921 
	C161.262222,156.259476 169.195190,152.104111 179.149887,152.048096 
	C202.972336,151.914017 226.796082,152.005066 250.619293,152.005249 
	C252.541153,152.005264 254.463028,152.005249 257.415558,152.005249 
	C256.070190,149.632721 255.377213,148.202026 254.498367,146.896408 
	C250.339767,140.718201 245.978745,134.669693 242.011780,128.372192 
	C240.363266,125.755241 238.475723,124.940819 235.510757,124.950691 
	C208.189331,125.041718 180.866669,124.889702 153.546356,125.087196 
	C146.963196,125.134781 140.838577,127.308838 136.154099,132.362808 
	C134.274445,134.390732 132.488907,136.505890 130.633835,138.611649 
	C119.456833,125.595062 118.133499,125.000702 100.662979,125.000694 
	C77.672745,125.000679 54.672943,125.375481 31.697681,124.788948 
	C24.082882,124.594543 19.408388,126.686882 15.898195,133.406586 
	C12.666110,139.593903 8.389898,145.235794 4.001445,151.999878 
	C18.349726,151.999878 31.326542,151.950378 44.302814,152.013535 
	C57.784813,152.079147 71.266281,152.253693 85.532417,152.765549 
M172.996735,21.495979 
	C154.530212,2.799009 125.466461,-2.231646 101.926697,11.592686 
	C78.517075,25.340588 71.255531,47.023220 74.704277,75.000603 
	C76.615730,75.000603 78.581802,75.000603 80.547874,75.000603 
	C112.184959,75.000603 143.822037,75.000603 175.459122,75.000618 
	C189.000397,75.000626 188.909073,74.999878 189.024460,61.194855 
	C189.151505,45.996197 183.994171,32.963596 172.996735,21.495979 
M37.990345,349.487305 
	C46.138809,356.898651 54.287273,364.309967 63.126282,372.349396 
	C67.563416,365.208923 71.172531,359.400940 74.146774,354.614624 
	C66.331291,346.809509 58.415714,340.164734 52.060764,332.264557 
	C42.362499,320.208130 35.992840,306.435516 35.995548,290.434021 
	C36.002037,252.131027 35.997917,213.828033 35.995792,175.525040 
	C35.995590,171.861359 35.901516,168.195648 35.997066,164.534683 
	C36.064087,161.966782 34.967033,160.950668 32.432873,160.998703 
	C27.938284,161.083923 23.412056,161.322662 18.951908,160.916672 
	C13.961463,160.462402 12.883843,162.488998 12.903766,167.160233 
	C13.072100,206.628250 12.941534,246.097427 13.020233,285.566010 
	C13.068543,309.793945 21.978004,330.681000 37.990345,349.487305 
M227.000061,181.500275 
	C226.999985,216.479340 227.002258,251.458405 226.993149,286.437469 
	C226.992676,288.267578 227.079895,290.124817 226.815170,291.923645 
	C223.813568,312.321136 214.426422,329.429810 199.735657,343.691254 
	C196.091461,347.228943 192.004608,350.310669 187.972992,353.727600 
	C190.981918,358.758667 193.957138,363.511230 196.693924,368.397308 
	C198.202148,371.089996 199.664093,371.684265 202.085419,369.455902 
	C209.239929,362.871521 216.854263,356.740723 223.596451,349.763550 
	C239.737030,333.060455 247.999329,312.219025 248.647583,289.616425 
	C249.836151,248.175354 248.960587,206.675812 249.039566,165.200821 
	C249.045944,161.853485 247.723160,160.847351 244.590683,160.966187 
	C240.099808,161.136551 235.594254,161.120392 231.101715,160.974915 
	C228.137863,160.878937 226.880493,161.945023 226.971527,165.011230 
	C227.124695,170.170105 227.004990,175.337051 227.000061,181.500275 
M67.998642,221.500000 
	C67.997215,203.021835 67.904701,184.542847 68.067932,166.066147 
	C68.102356,162.169830 66.914200,160.634750 62.957367,160.945953 
	C59.483089,161.219177 55.970119,160.991165 52.474297,161.001602 
	C46.023937,161.020874 46.005451,161.026077 46.004414,167.626831 
	C45.998142,207.579559 45.710651,247.535202 46.110882,287.483917 
	C46.347061,311.057800 58.439026,328.400574 77.253601,341.587494 
	C79.715096,343.312714 81.438904,342.657684 82.941368,340.199219 
	C85.859550,335.424133 88.906403,330.727631 91.899948,325.998596 
	C91.212692,326.560120 90.525436,327.121643 89.838188,327.683197 
	C86.555428,323.284698 83.475510,318.715515 79.947296,314.523621 
	C72.826698,306.063599 67.847656,296.924469 67.947266,285.425079 
	C68.128944,264.451477 67.998741,243.475174 67.998642,221.500000 
M195.017242,164.809738 
	C195.011322,204.107101 195.014145,243.404465 194.975815,282.701782 
	C194.973724,284.841125 194.765625,287.002655 194.420197,289.115723 
	C191.905884,304.496002 183.705460,316.308746 170.680450,325.684998 
	C174.467850,331.654724 178.114136,337.402039 182.514938,344.338593 
	C188.360367,338.730316 193.551514,333.796143 198.691422,328.809174 
	C211.131897,316.738770 215.866241,301.529541 215.947052,284.719696 
	C216.119904,248.753418 215.999985,212.785721 216.000000,176.818619 
	C216.000000,159.722046 215.999985,159.721619 198.733444,161.020966 
	C198.071152,161.070801 197.171814,160.897461 196.799744,161.258102 
	C196.062683,161.972565 195.617203,162.987823 195.017242,164.809738 
M162.500000,77.999702 
	C133.433197,77.999702 104.366402,77.999702 75.273361,77.999702 
	C75.564491,83.775703 78.175369,85.168533 83.265091,85.125458 
	C113.418633,84.870300 143.575424,84.999603 173.731125,84.999611 
	C177.712769,84.999611 181.694412,84.999603 185.619293,84.999603 
	C186.286774,82.540428 186.859253,80.431297 187.519257,77.999702 
	C179.146255,77.999702 171.323120,77.999702 162.500000,77.999702 
M92.572548,94.999725 
	C119.367836,94.999718 146.165985,94.795113 172.956070,95.168312 
	C178.468262,95.245102 180.711823,92.643433 183.197113,88.346313 
	C148.501877,88.346313 114.383041,88.346313 80.179916,88.346313 
	C81.821457,94.999489 81.821457,94.999489 92.572548,94.999725 
M147.500000,103.000252 
	C154.499817,102.999809 161.500946,102.919228 168.498917,103.033066 
	C171.948624,103.089180 173.915634,101.646339 174.784042,98.355499 
	C145.418640,98.355499 116.371696,98.355499 87.324753,98.355499 
	C87.119499,98.928909 86.914246,99.502319 86.708992,100.075729 
	C89.139801,101.050476 91.559326,102.836037 94.003220,102.870018 
	C111.499367,103.113327 129.000473,103.000160 147.500000,103.000252 
M133.500000,107.000557 
	C121.388657,107.000557 109.277313,107.000557 97.165970,107.000557 
	C97.075760,107.685318 96.985550,108.370071 96.895332,109.054832 
	C98.949364,109.702507 100.999138,110.896461 103.058098,110.912552 
	C121.700798,111.058189 140.346008,111.083038 158.987762,110.886787 
	C161.242401,110.863045 163.481049,109.319397 165.727112,108.480179 
	C165.573471,107.986969 165.419830,107.493767 165.266190,107.000557 
	C155.010788,107.000557 144.755402,107.000557 133.500000,107.000557 
M141.246933,119.995804 
	C145.132065,119.043999 149.017212,118.092194 152.902344,117.140388 
	C152.806885,116.818878 152.711411,116.497375 152.615952,116.175873 
	C138.529129,116.175873 124.442307,116.175873 108.814507,116.175873 
	C111.369507,117.138573 112.512962,117.628365 113.692650,118.004509 
	C122.417839,120.786461 131.305649,121.459381 141.246933,119.995804 
z"/>
<path fill="#A68137" opacity="1.000000" stroke="none" 
	d="
M108.000702,236.000000 
	C108.000702,215.540741 108.000702,195.581482 108.000702,175.312744 
	C114.022682,175.312744 119.611816,175.312744 125.999352,175.312744 
	C125.999352,177.175537 125.999359,179.092453 125.999359,181.009369 
	C125.999382,224.833191 125.883514,268.657593 126.107819,312.480286 
	C126.147514,320.236023 122.837708,326.291779 119.056198,332.482330 
	C111.632324,344.635651 104.348114,356.874329 97.029785,369.091858 
	C96.797165,369.480164 96.824181,370.024017 96.677574,370.759033 
	C119.583755,370.759033 142.331238,370.759033 165.729065,370.759033 
	C163.369614,366.594116 161.251144,362.624542 158.920166,358.783936 
	C152.463470,348.145599 145.750702,337.658142 139.512405,326.894714 
	C137.696823,323.762115 136.165039,319.906555 136.148102,316.374512 
	C135.927368,270.385559 136.001770,224.395172 136.012543,178.405151 
	C136.012756,177.445160 136.140259,176.485214 136.226135,175.275024 
	C142.099960,175.275024 147.689163,175.275024 153.999954,175.275024 
	C153.999954,177.261871 153.999969,179.189041 153.999969,181.116211 
	C153.999985,220.274384 154.413528,259.439484 153.758377,298.586670 
	C153.550720,310.994781 157.328491,321.158722 163.659393,331.308899 
	C173.622620,347.282654 182.877762,363.697784 192.448990,379.916412 
	C195.845917,385.672577 199.290482,391.400635 203.040268,397.689941 
	C154.973450,397.689941 107.652328,397.689941 59.412216,397.689941 
	C61.873768,393.254211 63.917519,389.266357 66.235458,385.444855 
	C79.393509,363.751678 92.684273,342.138458 105.723045,320.374146 
	C107.156624,317.981171 107.886162,314.803162 107.904625,311.982483 
	C108.069290,286.822540 108.000633,261.661041 108.000702,236.000000 
z"/>
<path fill="#003974" opacity="1.000000" stroke="none" 
	d="
M85.140198,152.573059 
	C71.266281,152.253693 57.784813,152.079147 44.302814,152.013535 
	C31.326542,151.950378 18.349726,151.999878 4.001445,151.999878 
	C8.389898,145.235794 12.666110,139.593903 15.898195,133.406586 
	C19.408388,126.686882 24.082882,124.594543 31.697681,124.788948 
	C54.672943,125.375481 77.672745,125.000679 100.662979,125.000694 
	C118.133499,125.000702 119.456833,125.595062 130.633835,138.611649 
	C132.488907,136.505890 134.274445,134.390732 136.154099,132.362808 
	C140.838577,127.308838 146.963196,125.134781 153.546356,125.087196 
	C180.866669,124.889702 208.189331,125.041718 235.510757,124.950691 
	C238.475723,124.940819 240.363266,125.755241 242.011780,128.372192 
	C245.978745,134.669693 250.339767,140.718201 254.498367,146.896408 
	C255.377213,148.202026 256.070190,149.632721 257.415558,152.005249 
	C254.463028,152.005249 252.541153,152.005264 250.619293,152.005249 
	C226.796082,152.005066 202.972336,151.914017 179.149887,152.048096 
	C169.195190,152.104111 161.262222,156.259476 155.996475,164.949921 
	C153.935684,168.350983 151.073853,170.076706 146.970016,170.037186 
	C135.809143,169.929688 124.644936,169.896255 113.485573,170.065430 
	C110.093063,170.116867 107.745842,168.978195 106.063293,166.133240 
	C101.428261,158.296036 94.117477,154.547195 85.140198,152.573059 
z"/>
<path fill="#A68137" opacity="1.000000" stroke="none" 
	d="
M173.251541,21.750439 
	C183.994171,32.963596 189.151505,45.996197 189.024460,61.194855 
	C188.909073,74.999878 189.000397,75.000626 175.459122,75.000618 
	C143.822037,75.000603 112.184959,75.000603 80.547874,75.000603 
	C78.581802,75.000603 76.615730,75.000603 74.704277,75.000603 
	C71.255531,47.023220 78.517075,25.340588 101.926697,11.592686 
	C125.466461,-2.231646 154.530212,2.799009 173.251541,21.750439 
z"/>
<path fill="#003974" opacity="1.000000" stroke="none" 
	d="
M37.737862,349.235840 
	C21.978004,330.681000 13.068543,309.793945 13.020233,285.566010 
	C12.941534,246.097427 13.072100,206.628250 12.903766,167.160233 
	C12.883843,162.488998 13.961463,160.462402 18.951908,160.916672 
	C23.412056,161.322662 27.938284,161.083923 32.432873,160.998703 
	C34.967033,160.950668 36.064087,161.966782 35.997066,164.534683 
	C35.901516,168.195648 35.995590,171.861359 35.995792,175.525040 
	C35.997917,213.828033 36.002037,252.131027 35.995548,290.434021 
	C35.992840,306.435516 42.362499,320.208130 52.060764,332.264557 
	C58.415714,340.164734 66.331291,346.809509 74.146774,354.614624 
	C71.172531,359.400940 67.563416,365.208923 63.126282,372.349396 
	C54.287273,364.309967 46.138809,356.898651 37.737862,349.235840 
z"/>
<path fill="#003974" opacity="1.000000" stroke="none" 
	d="
M227.000061,181.000443 
	C227.004990,175.337051 227.124695,170.170105 226.971527,165.011230 
	C226.880493,161.945023 228.137863,160.878937 231.101715,160.974915 
	C235.594254,161.120392 240.099808,161.136551 244.590683,160.966187 
	C247.723160,160.847351 249.045944,161.853485 249.039566,165.200821 
	C248.960587,206.675812 249.836151,248.175354 248.647583,289.616425 
	C247.999329,312.219025 239.737030,333.060455 223.596451,349.763550 
	C216.854263,356.740723 209.239929,362.871521 202.085419,369.455902 
	C199.664093,371.684265 198.202148,371.089996 196.693924,368.397308 
	C193.957138,363.511230 190.981918,358.758667 187.972992,353.727600 
	C192.004608,350.310669 196.091461,347.228943 199.735657,343.691254 
	C214.426422,329.429810 223.813568,312.321136 226.815170,291.923645 
	C227.079895,290.124817 226.992676,288.267578 226.993149,286.437469 
	C227.002258,251.458405 226.999985,216.479340 227.000061,181.000443 
z"/>
<path fill="#003974" opacity="1.000000" stroke="none" 
	d="
M67.998642,222.000000 
	C67.998741,243.475174 68.128944,264.451477 67.947266,285.425079 
	C67.847656,296.924469 72.826698,306.063599 79.947296,314.523621 
	C83.475510,318.715515 86.555428,323.284698 89.838188,327.683197 
	C90.525436,327.121643 91.212692,326.560120 91.899948,325.998596 
	C88.906403,330.727631 85.859550,335.424133 82.941368,340.199219 
	C81.438904,342.657684 79.715096,343.312714 77.253601,341.587494 
	C58.439026,328.400574 46.347061,311.057800 46.110882,287.483917 
	C45.710651,247.535202 45.998142,207.579559 46.004414,167.626831 
	C46.005451,161.026077 46.023937,161.020874 52.474297,161.001602 
	C55.970119,160.991165 59.483089,161.219177 62.957367,160.945953 
	C66.914200,160.634750 68.102356,162.169830 68.067932,166.066147 
	C67.904701,184.542847 67.997215,203.021835 67.998642,222.000000 
z"/>
<path fill="#003974" opacity="1.000000" stroke="none" 
	d="
M195.034210,164.344238 
	C195.617203,162.987823 196.062683,161.972565 196.799744,161.258102 
	C197.171814,160.897461 198.071152,161.070801 198.733444,161.020966 
	C215.999985,159.721619 216.000000,159.722046 216.000000,176.818619 
	C215.999985,212.785721 216.119904,248.753418 215.947052,284.719696 
	C215.866241,301.529541 211.131897,316.738770 198.691422,328.809174 
	C193.551514,333.796143 188.360367,338.730316 182.514938,344.338593 
	C178.114136,337.402039 174.467850,331.654724 170.680450,325.684998 
	C183.705460,316.308746 191.905884,304.496002 194.420197,289.115723 
	C194.765625,287.002655 194.973724,284.841125 194.975815,282.701782 
	C195.014145,243.404465 195.011322,204.107101 195.034210,164.344238 
z"/>
<path fill="#A68137" opacity="1.000000" stroke="none" 
	d="
M163.000000,77.999702 
	C171.323120,77.999702 179.146255,77.999702 187.519257,77.999702 
	C186.859253,80.431297 186.286774,82.540428 185.619293,84.999603 
	C181.694412,84.999603 177.712769,84.999611 173.731125,84.999611 
	C143.575424,84.999603 113.418633,84.870300 83.265091,85.125458 
	C78.175369,85.168533 75.564491,83.775703 75.273361,77.999702 
	C104.366402,77.999702 133.433197,77.999702 163.000000,77.999702 
z"/>
<path fill="#A68137" opacity="1.000000" stroke="none" 
	d="
M92.086029,94.999725 
	C81.821457,94.999489 81.821457,94.999489 80.179916,88.346313 
	C114.383041,88.346313 148.501877,88.346313 183.197113,88.346313 
	C180.711823,92.643433 178.468262,95.245102 172.956070,95.168312 
	C146.165985,94.795113 119.367836,94.999718 92.086029,94.999725 
z"/>
<path fill="#A68137" opacity="1.000000" stroke="none" 
	d="
M147.000000,103.000252 
	C129.000473,103.000160 111.499367,103.113327 94.003220,102.870018 
	C91.559326,102.836037 89.139801,101.050476 86.708992,100.075729 
	C86.914246,99.502319 87.119499,98.928909 87.324753,98.355499 
	C116.371696,98.355499 145.418640,98.355499 174.784042,98.355499 
	C173.915634,101.646339 171.948624,103.089180 168.498917,103.033066 
	C161.500946,102.919228 154.499817,102.999809 147.000000,103.000252 
z"/>
<path fill="#A68137" opacity="1.000000" stroke="none" 
	d="
M134.000000,107.000557 
	C144.755402,107.000557 155.010788,107.000557 165.266190,107.000557 
	C165.419830,107.493767 165.573471,107.986969 165.727112,108.480179 
	C163.481049,109.319397 161.242401,110.863045 158.987762,110.886787 
	C140.346008,111.083038 121.700798,111.058189 103.058098,110.912552 
	C100.999138,110.896461 98.949364,109.702507 96.895332,109.054832 
	C96.985550,108.370071 97.075760,107.685318 97.165970,107.000557 
	C109.277313,107.000557 121.388657,107.000557 134.000000,107.000557 
z"/>
<path fill="#A68137" opacity="1.000000" stroke="none" 
	d="
M140.798798,119.997269 
	C131.305649,121.459381 122.417839,120.786461 113.692650,118.004509 
	C112.512962,117.628365 111.369507,117.138573 108.814507,116.175873 
	C124.442307,116.175873 138.529129,116.175873 152.615952,116.175873 
	C152.711411,116.497375 152.806885,116.818878 152.902344,117.140388 
	C149.017212,118.092194 145.132065,119.043999 140.798798,119.997269 
z"/>
</svg>