<svg version="1.1" id="Layer_1" xmlns="http://www.w3.org/2000/svg" xmlns:xlink="http://www.w3.org/1999/xlink" x="0px" y="0px"
	 width="100%" viewBox="0 0 488 215" enable-background="new 0 0 488 215" xml:space="preserve">
<path fill="#FFFFFF" opacity="1.000000" stroke="none" 
	d="
M304.000000,216.000000 
	C202.666687,216.000000 101.833366,216.000000 1.000041,216.000000 
	C1.000027,144.333359 1.000027,72.666725 1.000014,1.000069 
	C163.666611,1.000046 326.333221,1.000046 488.999878,1.000023 
	C488.999908,72.666595 488.999908,144.333191 488.999939,215.999893 
	C427.500000,216.000000 366.000000,216.000000 304.000000,216.000000 
M139.622284,94.876877 
	C139.081009,94.251778 138.539749,93.626686 137.791428,92.356613 
	C137.737152,92.199364 137.724045,92.006294 137.622772,91.889931 
	C118.693092,70.137291 94.694130,55.761246 68.531731,44.590389 
	C66.556282,43.746906 64.178200,43.846397 61.233948,43.176716 
	C59.437855,42.601639 57.677422,41.755085 55.837536,41.513435 
	C52.883957,41.125511 49.877815,41.137772 46.309021,41.426617 
	C46.221733,47.471313 51.428684,53.270004 56.987335,53.949173 
	C59.054466,54.201740 61.238438,55.384735 62.901039,56.724380 
	C69.042740,61.673080 74.988770,66.864624 81.093750,72.651207 
	C85.006500,77.147003 88.919243,81.642799 92.977058,86.852226 
	C93.518532,87.861221 94.096085,88.852707 94.595512,89.882095 
	C97.391205,95.644333 100.720192,101.213745 98.211464,108.136406 
	C95.765846,114.884880 93.432816,121.705200 91.680252,128.652878 
	C91.218040,130.485184 93.083237,132.904602 93.879684,135.054413 
	C95.296013,134.512802 96.712341,133.971176 98.741631,133.285355 
	C99.157738,133.239563 99.573853,133.193787 100.515289,133.652069 
	C101.497353,133.687866 102.642715,134.073792 103.435570,133.703949 
	C109.645477,130.807281 116.048393,128.192230 121.869560,124.635605 
	C126.639748,121.721107 130.692520,117.632401 135.809708,113.955742 
	C140.771225,110.737541 146.322952,110.755577 151.959763,110.680038 
	C153.675949,110.657036 155.371094,109.063576 157.713364,108.054611 
	C158.142715,108.101761 158.572067,108.148918 158.998688,108.820984 
	C159.931000,109.554092 160.863327,110.287201 161.970749,111.785156 
	C162.171143,112.810402 162.371552,113.835648 161.922104,115.097542 
	C160.223831,117.676918 162.205460,117.914528 164.453293,118.907921 
	C165.603775,119.382309 166.754272,119.856705 167.987366,120.877640 
	C169.045395,120.050049 170.103424,119.222450 171.771347,117.995567 
	C173.792450,117.115074 175.813553,116.234573 178.156998,116.058586 
	C181.596802,116.261765 185.035294,116.533592 188.477707,116.598343 
	C189.030441,116.608742 189.600555,115.694290 190.899948,115.317604 
	C192.583313,115.275894 194.266663,115.234184 196.442627,115.462128 
	C196.977524,115.611595 197.512405,115.761070 198.083038,116.681442 
	C201.077118,117.798187 204.071198,118.914932 206.628860,119.868912 
	C206.628860,121.353577 205.992905,124.157661 206.733383,124.586823 
	C211.123734,127.131340 213.885910,132.466248 220.136780,131.976547 
	C225.649933,131.544662 231.229568,131.767609 236.770660,131.962646 
	C239.857483,132.071289 242.925537,132.713120 246.737000,133.113815 
	C247.461838,133.232849 248.186661,133.351883 249.116135,134.130676 
	C255.677689,135.707153 262.185455,137.601730 268.823792,138.724289 
	C272.082977,139.275436 275.584259,138.394913 279.814880,138.104919 
	C281.487427,138.201309 283.160004,138.297714 285.144867,139.034378 
	C290.422272,139.643570 295.687500,140.529694 300.981445,140.761597 
	C304.340851,140.908798 307.402802,141.037796 309.581970,144.862701 
	C309.597687,147.915024 309.613434,150.967331 308.869995,154.385239 
	C307.971130,158.522949 306.904755,162.634674 306.256439,166.811279 
	C305.999512,168.466415 306.671051,170.265671 306.882782,172.803528 
	C306.997803,173.583542 307.112793,174.363541 307.039886,175.131882 
	C307.039886,175.131882 306.943451,174.970139 306.195740,175.027603 
	C305.655121,176.807449 305.114502,178.587296 304.431183,181.120163 
	C304.256287,182.391266 304.081390,183.662354 303.251190,185.056396 
	C302.813171,186.220322 301.718781,187.709747 302.095612,188.469559 
	C302.620972,189.528854 304.711456,190.941132 305.317139,190.627670 
	C307.458923,189.519165 309.253784,187.740387 311.551575,186.056183 
	C311.551575,186.056183 311.929260,185.912201 312.656525,185.985352 
	C313.300537,185.232910 313.944550,184.480469 314.674500,183.666794 
	C314.674500,183.666794 314.752319,183.595505 315.455017,183.768799 
	C319.220581,181.345932 321.931183,178.223648 322.356842,173.369690 
	C322.356842,173.369690 322.438416,173.208252 323.104553,173.594101 
	C325.260651,169.961624 327.416748,166.329147 329.752625,162.362213 
	C329.752625,162.362213 329.865387,161.999329 330.543640,161.938416 
	C330.859100,160.938599 331.174561,159.938766 331.852692,158.237427 
	C331.879852,157.476730 331.906982,156.716034 332.194275,155.624451 
	C332.194275,155.624451 332.489532,155.324524 332.971863,155.632309 
	C334.462708,152.680038 335.953552,149.727768 337.672333,146.274872 
	C337.710785,146.095596 337.749237,145.916306 338.492889,145.683319 
	C339.067108,145.137451 340.023804,144.669861 340.154083,144.033157 
	C341.064819,139.582108 343.073120,136.524185 348.115509,136.056046 
	C349.188049,135.956451 350.103210,134.161682 350.987518,132.951874 
	C350.987518,132.951874 350.875977,132.760361 351.513855,133.126266 
	C352.003052,133.148453 352.492279,133.170639 353.551239,133.689072 
	C358.823975,132.636353 364.112915,131.654205 369.350403,130.448288 
	C370.065674,130.283600 370.523895,129.002579 371.513580,127.991608 
	C371.513580,127.991608 371.903717,127.710915 372.531281,128.084808 
	C373.017395,128.094604 373.503510,128.104401 374.535736,128.631256 
	C377.339172,128.037003 380.192719,127.609535 382.927795,126.787766 
	C384.645233,126.271751 386.986664,125.525772 387.576599,124.218758 
	C388.156097,122.934875 386.875427,120.811363 386.269775,118.522339 
	C388.047485,119.153610 389.712646,119.666435 391.316223,120.328476 
	C397.029266,122.687080 400.904938,122.119904 404.831421,118.107574 
	C405.814636,117.993210 406.797882,117.878845 408.532654,117.730202 
	C412.711334,115.508141 417.024231,113.500046 421.023071,110.991356 
	C423.850220,109.217735 423.450043,106.207024 420.214813,104.921150 
	C416.754089,103.545654 413.049469,102.788597 409.461090,101.728386 
	C400.988861,99.225189 392.554932,96.584381 384.039978,94.236877 
	C379.762512,93.057594 375.349152,92.360321 370.984558,91.510277 
	C363.319366,90.017426 355.644409,88.574692 347.565887,86.540779 
	C345.917908,86.548958 344.269928,86.557137 342.041931,86.428276 
	C341.656372,86.331566 341.270813,86.234848 340.810791,85.389870 
	C332.400146,83.367523 324.058868,80.928734 315.547607,79.510170 
	C311.677551,78.865166 309.708923,77.037918 308.000397,74.078697 
	C303.972260,67.101814 300.234131,59.925533 295.732544,53.266720 
	C293.300232,49.668793 289.791321,46.638096 286.291931,43.977879 
	C283.907410,42.165184 281.875977,42.984905 281.022369,46.543518 
	C280.077911,50.481056 278.221313,54.197483 276.794647,58.022411 
	C275.544403,61.374325 274.339539,64.743156 272.932068,68.710724 
	C272.937836,69.132347 272.943604,69.553970 272.400726,70.228249 
	C272.258423,70.807411 272.116150,71.386581 271.390472,72.051903 
	C270.882050,72.634087 270.373627,73.216278 269.288483,74.145790 
	C267.518982,76.425980 265.749481,78.706169 263.330383,81.104393 
	C258.926392,83.655289 263.296906,85.503059 263.020325,87.747353 
	C260.674957,88.131447 258.329590,88.515549 255.315430,88.852997 
	C254.218597,89.031349 253.121780,89.209702 251.425034,88.805496 
	C248.279099,88.832336 245.133163,88.859177 241.678940,88.389389 
	C241.118484,88.244179 240.558014,88.098976 239.456070,87.401970 
	C235.405411,87.872864 231.353699,88.335350 227.308914,88.852249 
	C227.177765,88.869011 227.117615,89.441406 226.236450,89.915833 
	C224.483429,90.209282 222.730423,90.502724 220.151108,90.757553 
	C218.777710,90.856682 217.404312,90.955818 215.162384,90.674789 
	C211.112549,90.723259 207.062698,90.771721 202.459671,90.292137 
	C200.647476,90.251617 198.835266,90.211098 196.728409,89.651985 
	C196.155518,90.106255 195.582611,90.560524 194.278610,91.056274 
	C193.794586,91.118584 193.310562,91.180885 191.968399,91.122414 
	C188.685776,90.682274 185.403137,90.242134 181.789764,89.230476 
	C180.194595,88.144394 178.599426,87.058311 176.863312,85.299141 
	C175.015182,85.506859 172.254883,85.030235 171.489578,86.050323 
	C169.172943,89.138184 163.675964,91.276291 167.057281,97.470459 
	C163.029938,96.861191 159.303055,95.639160 155.520218,94.625908 
	C154.800735,94.433197 153.859955,95.066582 152.159561,95.295914 
	C150.442200,95.346657 148.724838,95.397400 146.761459,94.880676 
	C145.514343,95.353416 144.267212,95.826157 142.329361,95.966698 
	C141.362305,95.839645 140.395233,95.712593 139.622284,94.876877 
z"/>
<path fill="#D9AFAC" opacity="1.000000" stroke="none" 
	d="
M273.114594,68.104515 
	C274.339539,64.743156 275.544403,61.374325 276.794647,58.022411 
	C278.221313,54.197483 280.077911,50.481056 281.022369,46.543518 
	C281.875977,42.984905 283.907410,42.165184 286.291931,43.977879 
	C289.791321,46.638096 293.300232,49.668793 295.732544,53.266720 
	C300.234131,59.925533 303.972260,67.101814 308.000397,74.078697 
	C309.708923,77.037918 311.677551,78.865166 315.547607,79.510170 
	C324.058868,80.928734 332.400146,83.367523 340.478882,85.861115 
	C339.676117,86.505684 339.205292,86.679016 338.376160,86.663223 
	C336.685089,86.278351 335.352356,86.082611 333.873108,85.693283 
	C333.141602,85.557899 332.556580,85.616104 331.622925,85.637337 
	C330.344696,85.521774 329.415039,85.443192 328.287201,85.074631 
	C325.675201,84.296371 323.261414,83.808083 320.498840,83.236687 
	C319.437195,83.082878 318.724304,83.012184 317.758728,82.671356 
	C314.790283,81.826591 312.074463,81.251945 309.324890,80.678909 
	C309.291107,80.680504 309.258850,80.620995 309.157349,80.305618 
	C307.546112,77.840645 306.036377,75.691063 304.459991,73.278641 
	C304.269440,72.676407 304.145538,72.336990 304.033020,71.639999 
	C302.554260,69.032143 301.064178,66.781883 299.496979,64.270752 
	C299.269592,63.680283 299.119324,63.350677 298.976807,62.672501 
	C297.520630,60.388836 296.056702,58.453743 294.522308,56.332924 
	C294.451843,56.147202 294.225037,55.821045 294.194702,55.507248 
	C293.570923,54.661221 292.977509,54.128994 292.310730,53.437038 
	C292.237366,53.277306 292.014862,53.005142 292.011597,52.652714 
	C290.393921,50.443241 288.979340,48.325439 287.065613,46.859020 
	C286.312469,46.281898 283.502808,46.774712 283.232361,47.435863 
	C280.996277,52.902809 279.136322,58.523605 277.017944,64.364868 
	C276.254852,65.426460 275.636353,66.221024 274.737701,67.065697 
	C274.009918,67.445374 273.562256,67.774948 273.114594,68.104515 
z"/>
<path fill="#860A09" opacity="1.000000" stroke="none" 
	d="
M275.017853,67.015594 
	C275.636353,66.221024 276.254852,65.426460 277.358337,64.292999 
	C278.649719,62.790848 279.627686,61.709641 280.230621,60.449032 
	C282.066528,56.610470 283.757782,52.702702 285.481079,48.875763 
	C288.216675,50.604668 290.115753,51.804905 292.014862,53.005142 
	C292.014862,53.005142 292.237366,53.277306 292.223511,53.795830 
	C292.881439,54.816582 293.553223,55.318813 294.225037,55.821045 
	C294.225037,55.821045 294.451843,56.147202 294.372559,56.690403 
	C295.851837,59.162762 297.410461,61.091919 298.969055,63.021076 
	C299.119324,63.350677 299.269592,63.680283 299.343872,64.630173 
	C300.852478,67.499496 302.437042,69.748543 304.021637,71.997581 
	C304.145538,72.336990 304.269440,72.676407 304.327820,73.649986 
	C305.923065,76.400177 304.954285,80.589577 309.258850,80.620995 
	C309.258850,80.620995 309.291107,80.680504 309.305817,80.986771 
	C309.596863,81.838112 309.873169,82.383186 309.747437,82.953949 
	C304.454742,82.938858 302.075745,79.660812 300.120453,75.829819 
	C297.517944,70.730736 295.101440,65.521103 292.191406,60.603745 
	C291.260864,59.031361 288.609894,56.990696 287.462952,57.364407 
	C285.506531,58.001873 283.820648,60.179092 282.550507,62.065865 
	C279.892914,66.013641 277.405121,70.102142 275.203156,74.318520 
	C274.187622,76.263046 273.651245,78.629768 273.563721,80.831543 
	C273.495880,82.537964 274.462677,84.285515 274.663391,85.850266 
	C272.128540,84.011581 269.899841,82.337425 267.720245,80.487190 
	C267.769348,80.311119 267.948273,79.992310 268.295349,79.949783 
	C269.030792,79.175240 269.419128,78.443222 269.843964,77.396988 
	C270.026398,76.467484 270.172363,75.852203 270.630646,75.105637 
	C271.286591,73.971481 271.630219,72.968613 271.973846,71.965744 
	C272.116150,71.386581 272.258423,70.807411 273.037994,70.110565 
	C274.122803,69.000458 274.570312,68.008026 275.017853,67.015594 
z"/>
<path fill="#DDB4B2" opacity="1.000000" stroke="none" 
	d="
M61.987286,43.507545 
	C64.178200,43.846397 66.556282,43.746906 68.531731,44.590389 
	C94.694130,55.761246 118.693092,70.137291 137.622772,91.889931 
	C137.724045,92.006294 137.737152,92.199364 137.813477,92.762367 
	C137.835510,93.168121 137.672562,93.334663 137.355988,93.301811 
	C136.625107,93.338631 136.210815,93.408310 135.495514,93.325699 
	C133.886215,92.022247 132.577942,90.871086 131.198563,89.806099 
	C131.127457,89.892273 131.312408,89.766884 131.306198,89.528397 
	C131.299988,89.289909 130.927582,88.991638 130.826508,88.691177 
	C129.797928,87.615311 128.870422,86.839897 127.856506,85.812889 
	C127.459465,85.412491 127.148827,85.263702 126.816071,84.773087 
	C124.956490,83.065544 123.119011,81.699821 121.352081,80.163818 
	C121.422630,79.993538 121.299500,79.646072 121.235245,79.414825 
	C121.170998,79.183571 120.763908,78.929214 120.593277,78.734589 
	C119.944298,78.378838 119.465942,78.217712 118.934273,77.718658 
	C111.368065,71.979492 104.071671,66.236320 96.267586,61.294971 
	C90.898270,57.895248 84.824928,55.607422 78.909210,52.552902 
	C77.834862,51.886654 76.917557,51.490131 75.710785,50.897251 
	C74.965683,50.607792 74.510040,50.514694 73.877426,50.146275 
	C70.482552,48.546566 67.264656,47.222179 63.868324,45.822311 
	C63.689892,45.746830 63.303131,45.723248 63.219955,45.472755 
	C62.753616,44.650692 62.370453,44.079121 61.987286,43.507545 
z"/>
<path fill="#831210" opacity="1.000000" stroke="none" 
	d="
M332.489502,155.324524 
	C332.489532,155.324524 332.194275,155.624451 331.695740,155.765732 
	C330.709534,157.046402 330.221924,158.185791 329.599396,159.596268 
	C329.296875,160.234543 329.129272,160.601746 328.626831,161.006989 
	C327.986633,161.769501 327.681335,162.493973 327.257690,163.474686 
	C327.019501,164.087631 326.899689,164.444336 326.449707,164.881348 
	C325.598145,166.066315 325.076721,167.170990 324.394501,168.585052 
	C323.635284,170.332397 323.036865,171.770325 322.438416,173.208252 
	C322.438416,173.208252 322.356842,173.369690 321.988007,173.487427 
	C320.080017,175.406174 318.540894,177.207199 316.656860,179.036407 
	C313.371948,181.295792 310.431885,183.527008 306.939484,186.177399 
	C306.742004,183.183655 306.629395,181.476227 306.599854,179.368179 
	C306.769775,177.635086 306.856628,176.302612 306.943451,174.970139 
	C306.943451,174.970139 307.039886,175.131882 307.513611,175.086426 
	C308.111511,173.923111 308.235626,172.805252 308.449127,171.409454 
	C308.592499,170.746063 308.646545,170.360626 309.019531,169.813629 
	C309.318512,169.003082 309.298523,168.354095 309.389771,167.316772 
	C309.745789,165.319168 309.990509,163.709885 310.513672,162.095688 
	C311.159180,162.039383 311.526245,161.987976 312.197906,162.189484 
	C312.502472,166.877792 312.502472,171.313217 312.502472,175.748657 
	C312.979797,175.991928 313.457123,176.235199 313.934418,176.478470 
	C316.518341,173.455658 319.706299,170.761673 321.566345,167.344803 
	C326.095612,159.024536 329.867920,150.294891 334.274170,141.902908 
	C335.314545,139.921432 337.653412,138.621704 339.356201,137.413757 
	C338.542969,140.041794 337.768463,142.264420 336.727112,144.623520 
	C335.824646,146.246735 335.189026,147.733475 334.455505,149.469772 
	C334.293427,149.886139 334.229279,150.052933 333.826263,150.274292 
	C333.133514,151.281235 332.779633,152.233566 332.311401,153.548370 
	C332.294525,154.382080 332.392029,154.853302 332.489502,155.324524 
z"/>
<path fill="#DDB4B2" opacity="1.000000" stroke="none" 
	d="
M347.973541,87.110970 
	C355.644409,88.574692 363.319366,90.017426 370.984558,91.510277 
	C375.349152,92.360321 379.762512,93.057594 384.039978,94.236877 
	C392.554932,96.584381 400.988861,99.225189 409.461090,101.728386 
	C413.049469,102.788597 416.754089,103.545654 420.214813,104.921150 
	C423.450043,106.207024 423.850220,109.217735 421.023071,110.991356 
	C417.024231,113.500046 412.711334,115.508141 408.148987,117.441849 
	C407.945770,116.573174 408.126190,115.992859 408.510101,115.357964 
	C408.713593,115.303383 409.014465,115.007370 409.252136,115.042908 
	C409.489807,115.078445 409.949219,114.937149 410.267456,114.974533 
	C411.549896,114.266243 412.514130,113.520576 413.781494,112.655991 
	C415.126312,111.763832 416.167999,110.990593 417.594269,110.161301 
	C417.854187,108.733574 418.105560,106.368202 417.542419,106.155083 
	C414.411316,104.970100 411.082581,104.307426 407.529572,103.348877 
	C406.824188,103.169624 406.410645,103.107529 405.774414,102.759140 
	C403.384125,101.953781 401.216553,101.434715 398.712982,100.833336 
	C397.246796,100.544426 396.116547,100.337822 394.813232,99.815613 
	C393.024078,99.160088 391.407990,98.820168 389.452393,98.379341 
	C388.409424,98.205009 387.705963,98.131584 386.777496,97.774429 
	C383.361877,96.863182 380.171265,96.235664 376.727600,95.565269 
	C376.133942,95.490387 375.793365,95.458382 375.255493,95.140244 
	C372.970154,94.396545 370.882111,93.938980 368.451660,93.385956 
	C367.402710,93.222420 366.696136,93.154350 365.763580,92.792572 
	C362.017029,91.868279 358.496460,91.237694 354.726685,90.559830 
	C354.141510,90.473686 353.805573,90.434822 353.282654,90.121933 
	C351.396271,89.241600 349.696899,88.635284 347.994049,87.799400 
	C347.990570,87.569839 347.973541,87.110970 347.973541,87.110970 
z"/>
<path fill="#E1BBB9" opacity="1.000000" stroke="none" 
	d="
M246.002060,133.114670 
	C242.925537,132.713120 239.857483,132.071289 236.770660,131.962646 
	C231.229568,131.767609 225.649933,131.544662 220.136780,131.976547 
	C213.885910,132.466248 211.123734,127.131340 206.733383,124.586823 
	C205.992905,124.157661 206.628860,121.353577 206.628860,119.868912 
	C204.071198,118.914932 201.077118,117.798187 198.471603,116.140289 
	C200.586258,115.677956 202.312332,115.756775 204.266479,116.139664 
	C207.348938,116.886185 210.203308,117.328651 213.288818,117.961868 
	C213.831406,118.402962 214.142853,118.653290 214.297974,119.239632 
	C212.775345,121.050652 211.409027,122.525658 209.658981,124.414917 
	C211.497009,125.543190 213.087540,126.519554 214.874451,127.781242 
	C217.338989,128.440277 219.602112,129.087540 221.876343,129.129257 
	C226.255951,129.209579 230.641846,128.947388 235.143311,129.136017 
	C236.847488,129.723267 238.433517,130.001740 240.352493,130.334869 
	C241.355225,130.441696 242.024994,130.493866 242.810516,130.842560 
	C243.951538,131.797592 244.976807,132.456131 246.002060,133.114670 
z"/>
<path fill="#D9AFAC" opacity="1.000000" stroke="none" 
	d="
M98.128670,133.429565 
	C96.712341,133.971176 95.296013,134.512802 93.879684,135.054413 
	C93.083237,132.904602 91.218040,130.485184 91.680252,128.652878 
	C93.432816,121.705200 95.765846,114.884880 98.211464,108.136406 
	C100.720192,101.213745 97.391205,95.644333 94.595512,89.882095 
	C94.096085,88.852707 93.518532,87.861221 93.020042,86.398491 
	C93.063026,85.944756 93.294876,85.753571 93.590866,85.841705 
	C94.780678,86.409935 95.674500,86.890038 96.644669,87.549667 
	C96.721024,87.729202 96.916206,88.067055 96.913498,88.436394 
	C97.259056,89.551483 97.574905,90.314476 97.960640,91.040321 
	C101.692551,98.062569 103.507431,105.095078 99.025299,112.614403 
	C97.909805,114.485786 97.777931,116.943489 97.098221,119.472794 
	C96.788879,120.732628 96.575272,121.651360 96.103485,122.700806 
	C95.498055,124.222771 95.150803,125.614006 94.721970,127.407745 
	C95.361382,129.377426 96.082375,130.944611 97.139297,132.734589 
	C97.693039,133.114761 97.910851,133.272171 98.128670,133.429565 
z"/>
<path fill="#831210" opacity="1.000000" stroke="none" 
	d="
M371.903717,127.710907 
	C371.903717,127.710915 371.513580,127.991608 370.947723,127.945236 
	C369.588837,127.938713 368.795776,127.978546 367.788574,127.775215 
	C365.695221,128.323013 363.816040,129.113983 361.580170,130.016022 
	C359.476929,130.366516 357.730377,130.605957 355.763763,130.610840 
	C353.987793,131.170990 352.431885,131.965668 350.875977,132.760345 
	C350.875977,132.760361 350.987518,132.951874 350.678619,132.883499 
	C349.578918,132.866165 348.788147,132.917221 347.833801,132.746094 
	C347.113556,132.784164 346.556793,133.044418 345.730042,133.340485 
	C345.099854,133.423111 344.739685,133.469910 344.050659,133.365097 
	C343.138153,133.791763 342.554535,134.370056 341.752960,135.176056 
	C340.822723,135.848862 340.110443,136.293961 339.284241,136.308716 
	C338.897522,131.580719 342.335083,130.831253 345.214752,130.038757 
	C354.047913,127.607834 362.965332,125.484497 371.834351,123.181442 
	C374.315735,122.537094 376.743134,121.684906 379.562439,120.912514 
	C380.411652,120.798302 380.893768,120.699631 381.523926,120.896194 
	C383.305420,125.616547 379.324738,124.617157 377.046661,125.443741 
	C375.093964,126.089699 373.498840,126.900291 371.903717,127.710907 
z"/>
<path fill="#D9AFAC" opacity="1.000000" stroke="none" 
	d="
M81.008354,71.964874 
	C74.988770,66.864624 69.042740,61.673080 62.901039,56.724380 
	C61.238438,55.384735 59.054466,54.201740 56.987335,53.949173 
	C51.428684,53.270004 46.221733,47.471313 46.753212,41.512638 
	C48.692101,43.512661 50.186794,45.426659 51.733368,47.516068 
	C51.785252,47.691479 51.994198,47.993706 51.996323,48.328331 
	C52.676304,49.095692 53.354164,49.528423 54.383327,50.110817 
	C55.990330,50.346024 57.246025,50.431561 58.685436,50.796364 
	C60.116558,51.514809 61.363968,51.953983 62.650188,52.392204 
	C62.689003,52.391251 62.684338,52.468761 62.783516,52.771191 
	C64.522423,54.479065 66.162163,55.884510 67.999153,57.539059 
	C69.411438,58.906326 70.626457,60.024490 71.892487,61.459618 
	C72.629601,62.187687 73.315712,62.598797 74.165375,63.268677 
	C75.242996,64.326126 76.157059,65.124802 77.123543,66.221985 
	C77.690254,66.787605 78.204544,67.054726 78.950333,67.518768 
	C79.786934,68.545120 80.392044,69.374550 81.002075,70.497581 
	C81.007446,71.182411 81.007896,71.573647 81.008354,71.964874 
z"/>
<path fill="#D9AFAC" opacity="1.000000" stroke="none" 
	d="
M377.404236,125.608383 
	C379.324738,124.617157 383.305420,125.616547 381.466553,120.527573 
	C381.175751,118.589989 381.090363,117.316261 381.418091,115.963089 
	C383.221619,115.900146 384.612061,115.916672 386.179016,116.243988 
	C387.971283,116.886826 389.587067,117.218864 391.543518,117.652077 
	C392.587280,117.850937 393.290344,117.948624 394.261902,118.314598 
	C396.689270,118.399605 398.848145,118.216324 401.320374,118.004898 
	C402.037506,117.866333 402.441284,117.755913 403.172882,117.820496 
	C403.712494,118.124062 403.924286,118.252632 404.136047,118.381195 
	C400.904938,122.119904 397.029266,122.687080 391.316223,120.328476 
	C389.712646,119.666435 388.047485,119.153610 386.269775,118.522339 
	C386.875427,120.811363 388.156097,122.934875 387.576599,124.218758 
	C386.986664,125.525772 384.645233,126.271751 382.927795,126.787766 
	C380.192719,127.609535 377.339172,128.037003 374.414795,128.094193 
	C375.330658,126.907555 376.367462,126.257965 377.404236,125.608383 
z"/>
<path fill="#8A2626" opacity="1.000000" stroke="none" 
	d="
M216.030914,91.054947 
	C217.404312,90.955818 218.777710,90.856682 220.774460,91.097351 
	C223.287552,91.195213 225.177292,90.953278 227.497009,90.686928 
	C229.931061,90.719116 231.935120,90.775734 233.969635,91.190643 
	C233.991226,92.027863 233.982376,92.506783 233.603821,92.985435 
	C232.494797,92.996750 231.755478,93.008339 230.581024,93.009499 
	C218.754272,93.551437 207.361465,94.082466 195.973892,94.708679 
	C195.283020,94.746666 194.633743,95.540916 193.598679,95.980240 
	C192.499390,95.985176 191.766556,95.993149 190.626007,95.988037 
	C188.145981,95.317741 186.073654,94.660530 184.419281,93.940033 
	C187.576233,93.560898 190.315201,93.245049 193.498505,92.934280 
	C196.865082,92.778000 199.787292,92.616631 203.169144,92.632034 
	C205.612320,92.838791 207.633255,93.120148 209.569519,92.832214 
	C211.762909,92.506050 213.880417,91.669548 216.030914,91.054947 
z"/>
<path fill="#D9AFAC" opacity="1.000000" stroke="none" 
	d="
M135.063309,114.064209 
	C130.692520,117.632401 126.639748,121.721107 121.869560,124.635605 
	C116.048393,128.192230 109.645477,130.807281 103.435570,133.703949 
	C102.642715,134.073792 101.497353,133.687866 100.380096,133.117538 
	C100.834534,132.038696 101.424156,131.494400 102.293686,130.923492 
	C103.069519,130.662643 103.565445,130.428391 104.417542,130.245026 
	C105.740891,129.802948 106.708076,129.309998 107.990143,128.816315 
	C108.882683,128.563889 109.460350,128.312195 110.407898,128.099457 
	C118.694603,123.265213 126.611420,118.392029 134.662003,113.655197 
	C134.795761,113.791542 135.063309,114.064209 135.063309,114.064209 
z"/>
<path fill="#D9AFAC" opacity="1.000000" stroke="none" 
	d="
M153.021286,95.318810 
	C153.859955,95.066582 154.800735,94.433197 155.520218,94.625908 
	C159.303055,95.639160 163.029938,96.861191 167.057281,97.470459 
	C163.675964,91.276291 169.172943,89.138184 171.489578,86.050323 
	C172.254883,85.030235 175.015182,85.506859 176.817764,85.837448 
	C176.772217,86.375763 176.471634,86.731186 176.500397,86.676308 
	C176.529144,86.621429 176.447769,86.700218 176.145844,86.521263 
	C175.121552,86.758423 174.399185,87.174538 173.369949,87.718750 
	C171.975388,89.221512 170.887680,90.596169 169.597198,92.197952 
	C171.027939,93.746185 172.661484,95.067299 174.294250,96.621567 
	C173.904465,97.315636 173.515442,97.776543 172.802780,98.163635 
	C171.981384,98.456161 171.483612,98.822495 170.523911,99.171310 
	C166.033600,99.139786 162.005234,99.125771 157.822510,98.831413 
	C156.119202,97.473656 154.570251,96.396233 153.021286,95.318810 
z"/>
<path fill="#A25350" opacity="1.000000" stroke="none" 
	d="
M284.832550,138.394104 
	C283.160004,138.297714 281.487427,138.201309 279.180237,137.841217 
	C276.596405,136.901260 274.647217,136.224991 273.163300,135.378159 
	C285.398010,135.538437 297.167480,135.869278 308.966858,136.489624 
	C309.016693,137.163971 309.036621,137.548828 308.589050,138.006287 
	C300.358551,138.183975 292.595551,138.289047 284.832550,138.394104 
z"/>
<path fill="#E1BBB9" opacity="1.000000" stroke="none" 
	d="
M272.698029,135.548721 
	C274.647217,136.224991 276.596405,136.901260 278.760803,137.869904 
	C275.584259,138.394913 272.082977,139.275436 268.823792,138.724289 
	C262.185455,137.601730 255.677689,135.707153 249.323730,133.588654 
	C249.743195,132.913422 249.955078,132.780212 250.465714,132.732437 
	C251.176651,132.856232 251.588852,132.894608 252.260788,133.216644 
	C257.350739,134.123016 262.180969,134.745743 267.418335,135.404968 
	C269.449677,135.477219 271.073853,135.512970 272.698029,135.548721 
z"/>
<path fill="#E1BBB9" opacity="1.000000" stroke="none" 
	d="
M284.988708,138.714233 
	C292.595551,138.289047 300.358551,138.183975 308.774414,138.164490 
	C309.668365,138.469223 309.896301,138.701248 310.041626,139.313660 
	C309.852814,141.100037 309.733551,142.518921 309.614258,143.937790 
	C307.402802,141.037796 304.340851,140.908798 300.981445,140.761597 
	C295.687500,140.529694 290.422272,139.643570 284.988708,138.714233 
z"/>
<path fill="#A25350" opacity="1.000000" stroke="none" 
	d="
M309.598145,144.400238 
	C309.733551,142.518921 309.852814,141.100037 310.393921,139.305817 
	C311.500885,139.961365 312.186035,140.992249 312.857178,142.487305 
	C312.577637,148.638931 312.312103,154.326385 312.007019,160.333435 
	C311.942780,161.080902 311.918060,161.508743 311.893311,161.936584 
	C311.526245,161.987976 311.159180,162.039383 310.393372,161.680206 
	C309.872803,158.852982 309.750977,156.436325 309.629150,154.019653 
	C309.613434,150.967331 309.597687,147.915024 309.598145,144.400238 
z"/>
<path fill="#923937" opacity="1.000000" stroke="none" 
	d="
M167.904755,120.331100 
	C166.754272,119.856705 165.603775,119.382309 164.392685,118.272293 
	C164.299210,117.133171 164.266342,116.629669 164.575012,116.031906 
	C165.269852,115.634491 165.623154,115.331337 166.297424,115.182793 
	C169.218018,114.704124 171.821075,114.084496 174.416504,113.434341 
	C178.267731,112.469620 181.983139,108.958832 185.742126,112.963501 
	C182.879745,113.846039 180.357208,114.600067 177.834656,115.354088 
	C175.813553,116.234573 173.792450,117.115074 171.136536,118.091934 
	C169.636078,118.902565 168.770416,119.616829 167.904755,120.331100 
z"/>
<path fill="#D9AFAC" opacity="1.000000" stroke="none" 
	d="
M157.075867,108.189384 
	C155.371094,109.063576 153.675949,110.657036 151.959763,110.680038 
	C146.322952,110.755577 140.771225,110.737541 135.436508,114.009979 
	C135.063309,114.064209 134.795761,113.791542 134.871124,113.402313 
	C137.297897,111.340508 139.649292,109.667923 142.467224,107.993935 
	C147.647797,108.058151 152.361832,108.123772 157.075867,108.189384 
z"/>
<path fill="#850C0B" opacity="1.000000" stroke="none" 
	d="
M214.454285,118.903618 
	C214.142853,118.653290 213.831406,118.402962 213.223175,117.600677 
	C210.344635,113.853653 207.212372,114.691879 204.038422,115.835587 
	C202.312332,115.756775 200.586258,115.677956 198.453735,115.754837 
	C197.512405,115.761070 196.977524,115.611595 196.227234,114.941566 
	C195.981033,113.648239 195.950226,112.875465 196.360413,112.065559 
	C201.497086,112.360100 206.335114,112.132370 210.824524,113.274727 
	C212.870743,113.795387 214.228394,117.022064 215.657852,119.001335 
	C215.100723,118.900803 214.779709,118.874908 214.454285,118.903618 
z"/>
<path fill="#8F4040" opacity="1.000000" stroke="none" 
	d="
M51.681488,47.340660 
	C50.186794,45.426659 48.692101,43.512661 47.045647,41.289787 
	C49.877815,41.137772 52.883957,41.125511 55.837536,41.513435 
	C57.677422,41.755085 59.437855,42.601639 61.610619,43.342133 
	C62.370453,44.079121 62.753616,44.650692 62.792595,45.573906 
	C60.633186,45.477280 58.754539,45.197456 57.016922,44.543121 
	C54.067432,43.432434 51.954025,43.526253 51.681488,47.340660 
M50.652973,43.518372 
	C50.652973,43.518372 50.468418,43.412609 50.468418,43.412609 
	C50.468418,43.412609 50.496021,43.634941 50.652973,43.518372 
z"/>
<path fill="#D9AFAC" opacity="1.000000" stroke="none" 
	d="
M344.379547,133.516724 
	C344.739685,133.469910 345.099854,133.423111 345.902893,133.519547 
	C346.896301,133.431274 347.446838,133.199768 347.997345,132.968262 
	C348.788147,132.917221 349.578918,132.866165 350.730286,132.981537 
	C350.103210,134.161682 349.188049,135.956451 348.115509,136.056046 
	C343.073120,136.524185 341.064819,139.582108 340.154083,144.033157 
	C340.023804,144.669861 339.067108,145.137451 337.987488,145.369247 
	C337.319366,144.865784 337.156647,144.676407 336.993958,144.487045 
	C337.768463,142.264420 338.542969,140.041794 339.370514,137.346985 
	C339.423553,136.874817 339.398163,136.739059 339.398163,136.739044 
	C340.110443,136.293961 340.822723,135.848862 342.059998,135.198196 
	C343.183197,134.500656 343.781372,134.008698 344.379547,133.516724 
z"/>
<path fill="#DDB4B2" opacity="1.000000" stroke="none" 
	d="
M81.051056,72.308044 
	C81.007896,71.573647 81.007446,71.182411 81.321205,70.581596 
	C85.473129,74.546265 89.310844,78.720512 93.102646,83.252182 
	C93.136108,84.324265 93.215492,85.038918 93.294876,85.753571 
	C93.294876,85.753571 93.063026,85.944756 92.947510,86.041672 
	C88.919243,81.642799 85.006500,77.147003 81.051056,72.308044 
z"/>
<path fill="#861816" opacity="1.000000" stroke="none" 
	d="
M157.394623,108.122002 
	C152.361832,108.123772 147.647797,108.058151 142.469788,107.677177 
	C141.949890,106.944183 141.893951,106.526535 142.276764,106.075836 
	C146.548340,105.496933 150.387146,104.516724 154.211746,104.569252 
	C156.481613,104.600426 158.729111,106.259361 160.697205,107.267632 
	C159.938965,107.631256 159.470184,107.913666 159.001419,108.196068 
	C158.572067,108.148918 158.142715,108.101761 157.394623,108.122002 
z"/>
<path fill="#B27370" opacity="1.000000" stroke="none" 
	d="
M306.516785,179.768799 
	C306.629395,181.476227 306.742004,183.183655 306.939484,186.177399 
	C310.431885,183.527008 313.371948,181.295792 316.667847,179.371185 
	C316.266602,180.983688 315.509460,182.289597 314.752319,183.595520 
	C314.752319,183.595505 314.674500,183.666794 314.336090,183.741638 
	C313.308197,184.515060 312.618744,185.213623 311.929260,185.912201 
	C311.929260,185.912201 311.551575,186.056183 310.991577,186.182877 
	C307.870880,187.679428 304.944305,190.784378 303.906464,184.933456 
	C304.081390,183.662354 304.256287,182.391266 304.740692,180.664062 
	C305.539062,180.061569 306.027954,179.915192 306.516785,179.768799 
z"/>
<path fill="#E1BBB9" opacity="1.000000" stroke="none" 
	d="
M309.249573,154.202454 
	C309.750977,156.436325 309.872803,158.852982 310.114929,161.685120 
	C309.990509,163.709885 309.745789,165.319168 309.168762,167.422791 
	C308.791199,168.603134 308.745880,169.289169 308.700592,169.975189 
	C308.646545,170.360626 308.592499,170.746063 308.209045,171.460052 
	C307.576385,171.934906 307.256470,172.005127 306.919861,171.999298 
	C306.671051,170.265671 305.999512,168.466415 306.256439,166.811279 
	C306.904755,162.634674 307.971130,158.522949 309.249573,154.202454 
z"/>
<path fill="#B87372" opacity="1.000000" stroke="none" 
	d="
M267.948273,79.992310 
	C267.948273,79.992310 267.769348,80.311119 267.399109,80.636581 
	C265.130554,82.929703 266.309540,83.308655 268.231842,84.129700 
	C270.003937,84.886589 271.360474,86.616386 272.700500,88.038177 
	C272.249756,88.351479 272.052338,88.588943 271.646606,88.853416 
	C270.932648,88.644775 270.480743,88.453819 270.139709,87.927322 
	C269.655914,86.983009 269.073120,85.864571 268.464478,85.850334 
	C265.167725,85.773224 263.691864,84.253777 263.979950,80.986359 
	C265.749481,78.706169 267.518982,76.425980 269.668945,74.338455 
	C270.139069,74.766380 270.228668,75.001656 270.318298,75.236923 
	C270.172363,75.852203 270.026398,76.467484 269.547119,77.515152 
	C268.791931,78.629135 268.370087,79.310722 267.948273,79.992310 
z"/>
<path fill="#D9AFAC" opacity="1.000000" stroke="none" 
	d="
M355.983795,130.845398 
	C357.730377,130.605957 359.476929,130.366516 361.950317,130.079773 
	C364.452362,129.361099 366.227539,128.689743 368.002747,128.018387 
	C368.795776,127.978546 369.588837,127.938713 370.741516,128.068634 
	C370.523895,129.002579 370.065674,130.283600 369.350403,130.448288 
	C364.112915,131.654205 358.823975,132.636353 353.427643,133.149841 
	C354.197296,132.022202 355.090546,131.433807 355.983795,130.845398 
z"/>
<path fill="#F6E3E1" opacity="1.000000" stroke="none" 
	d="
M233.939194,90.832352 
	C231.935120,90.775734 229.931061,90.719116 227.515045,90.446579 
	C227.103104,90.230652 227.024353,89.754791 227.024353,89.754791 
	C227.117615,89.441406 227.177765,88.869011 227.308914,88.852249 
	C231.353699,88.335350 235.405411,87.872864 239.709763,87.998901 
	C239.964752,89.021774 239.966034,89.447708 239.593094,89.998337 
	C237.458969,90.359474 235.699081,90.595909 233.939194,90.832352 
z"/>
<path fill="#B87372" opacity="1.000000" stroke="none" 
	d="
M193.054169,92.929199 
	C190.315201,93.245049 187.576233,93.560898 184.106796,93.901230 
	C182.701202,93.525330 182.026062,93.124954 181.354523,92.439850 
	C181.392563,91.776192 181.427002,91.397270 181.619171,90.845360 
	C181.917343,90.392471 182.031891,90.102341 182.120514,89.801987 
	C185.403137,90.242134 188.685776,90.682274 192.427612,91.464645 
	C192.942596,92.180992 192.998383,92.555092 193.054169,92.929199 
z"/>
<path fill="#A25350" opacity="1.000000" stroke="none" 
	d="
M152.590424,95.307358 
	C154.570251,96.396233 156.119202,97.473656 157.600601,99.080475 
	C153.595947,98.948036 149.658844,98.286186 145.771347,97.369278 
	C146.216446,96.558853 146.611969,96.003502 147.007477,95.448151 
	C148.724838,95.397400 150.442200,95.346657 152.590424,95.307358 
z"/>
<path fill="#E1BBB9" opacity="1.000000" stroke="none" 
	d="
M177.995819,115.706345 
	C180.357208,114.600067 182.879745,113.846039 185.726089,113.103104 
	C186.049881,113.114197 185.886810,113.342751 185.962067,113.602509 
	C186.688507,113.917709 187.339706,113.973160 188.273300,114.008041 
	C189.091339,114.394104 189.626984,114.800743 190.162628,115.207382 
	C189.600555,115.694290 189.030441,116.608742 188.477707,116.598343 
	C185.035294,116.533592 181.596802,116.261765 177.995819,115.706345 
z"/>
<path fill="#E1BBB9" opacity="1.000000" stroke="none" 
	d="
M303.578827,184.994934 
	C304.944305,190.784378 307.870880,187.679428 310.805847,186.262634 
	C309.253784,187.740387 307.458923,189.519165 305.317139,190.627670 
	C304.711456,190.941132 302.620972,189.528854 302.095612,188.469559 
	C301.718781,187.709747 302.813171,186.220322 303.578827,184.994934 
z"/>
<path fill="#E1BBB9" opacity="1.000000" stroke="none" 
	d="
M322.771484,173.401184 
	C323.036865,171.770325 323.635284,170.332397 324.690857,168.470428 
	C325.691956,166.964600 326.235901,165.882812 326.779877,164.801041 
	C326.899689,164.444336 327.019501,164.087631 327.538147,163.434006 
	C328.482300,162.990265 329.027557,162.843460 329.572845,162.696671 
	C327.416748,166.329147 325.260651,169.961624 322.771484,173.401184 
z"/>
<path fill="#E1BBB9" opacity="1.000000" stroke="none" 
	d="
M263.655151,81.045372 
	C263.691864,84.253777 265.167725,85.773224 268.464478,85.850334 
	C269.073120,85.864571 269.655914,86.983009 269.742432,87.946075 
	C267.920868,88.372719 266.607544,88.445084 264.933685,88.303558 
	C264.333923,87.945213 264.094666,87.800758 263.855408,87.656296 
	C263.296906,85.503059 258.926392,83.655289 263.655151,81.045372 
z"/>
<path fill="#923937" opacity="1.000000" stroke="none" 
	d="
M190.531281,115.262489 
	C189.626984,114.800743 189.091339,114.394104 188.261765,113.754692 
	C187.976883,113.353127 187.985947,113.184334 188.260406,112.717819 
	C190.999695,112.302719 193.473557,112.185326 195.947083,112.073158 
	C195.946716,112.078384 195.919418,112.102699 195.919418,112.102699 
	C195.950226,112.875465 195.981033,113.648239 195.980927,114.806740 
	C194.266663,115.234184 192.583313,115.275894 190.531281,115.262489 
z"/>
<path fill="#E1BBB9" opacity="1.000000" stroke="none" 
	d="
M315.103699,183.682159 
	C315.509460,182.289597 316.266602,180.983688 317.012726,179.342987 
	C318.540894,177.207199 320.080017,175.406174 321.935425,173.561005 
	C321.931183,178.223648 319.220581,181.345932 315.103699,183.682159 
z"/>
<path fill="#DDB4B2" opacity="1.000000" stroke="none" 
	d="
M193.498505,92.934280 
	C192.998383,92.555092 192.942596,92.180992 192.856674,91.525040 
	C193.310562,91.180885 193.794586,91.118584 194.937836,91.044708 
	C196.072388,90.745621 196.547729,90.458107 197.023071,90.170578 
	C198.835266,90.211098 200.647476,90.251617 202.731873,90.837265 
	C202.905899,91.740021 202.807709,92.097649 202.709534,92.455269 
	C199.787292,92.616631 196.865082,92.778000 193.498505,92.934280 
z"/>
<path fill="#B87372" opacity="1.000000" stroke="none" 
	d="
M203.169159,92.632034 
	C202.807709,92.097649 202.905899,91.740021 203.008484,91.101288 
	C207.062698,90.771721 211.112549,90.723259 215.596649,90.864868 
	C213.880417,91.669548 211.762909,92.506050 209.569519,92.832214 
	C207.633255,93.120148 205.612320,92.838791 203.169159,92.632034 
z"/>
<path fill="#D9AFAC" opacity="1.000000" stroke="none" 
	d="
M332.730682,155.478424 
	C332.392029,154.853302 332.294525,154.382080 332.610992,153.452606 
	C333.404999,152.069473 333.785034,151.144592 334.165100,150.219696 
	C334.229279,150.052933 334.293427,149.886139 334.707520,149.358856 
	C335.853058,148.257416 336.648712,147.516449 337.444397,146.775513 
	C335.953552,149.727768 334.462708,152.680038 332.730682,155.478424 
z"/>
<path fill="#9F504D" opacity="1.000000" stroke="none" 
	d="
M165.976471,115.028183 
	C165.623154,115.331337 165.269852,115.634491 164.424927,115.868828 
	C163.479523,115.486969 163.025742,115.173935 162.571945,114.860893 
	C162.371552,113.835648 162.171143,112.810402 162.120605,111.277664 
	C162.094528,109.691299 161.918610,108.612419 162.091309,107.420586 
	C163.618774,109.881142 164.797623,112.454659 165.976471,115.028183 
z"/>
<path fill="#B87372" opacity="1.000000" stroke="none" 
	d="
M263.437866,87.701828 
	C264.094666,87.800758 264.333923,87.945213 264.866058,88.539642 
	C265.003387,89.290031 264.933289,89.609238 264.562531,89.954491 
	C262.158081,90.200661 260.139771,90.439575 257.896027,90.486542 
	C257.108459,89.829605 256.546356,89.364616 255.984238,88.899635 
	C258.329590,88.515549 260.674957,88.131447 263.437866,87.701828 
z"/>
<path fill="#B87372" opacity="1.000000" stroke="none" 
	d="
M241.987228,88.886017 
	C245.133163,88.859177 248.279099,88.832336 251.731018,89.458206 
	C251.998322,90.348251 251.959656,90.585571 251.485352,90.825577 
	C248.038925,90.651993 245.028122,90.475723 242.014862,89.945984 
	C242.004013,89.357025 241.995621,89.121521 241.987228,88.886017 
z"/>
<path fill="#A25350" opacity="1.000000" stroke="none" 
	d="
M181.955139,89.516235 
	C182.031891,90.102341 181.917343,90.392471 181.213104,90.810318 
	C178.325134,89.829056 176.000977,88.709854 173.676804,87.590652 
	C174.399185,87.174538 175.121552,86.758423 176.132324,86.504570 
	C176.420700,86.666832 176.471634,86.731186 176.471634,86.731186 
	C176.471634,86.731186 176.772217,86.375763 176.888245,86.173996 
	C178.599426,87.058311 180.194595,88.144394 181.955139,89.516235 
z"/>
<path fill="#A25350" opacity="1.000000" stroke="none" 
	d="
M250.166962,132.647018 
	C249.955078,132.780212 249.743195,132.913422 249.221405,133.258759 
	C248.186661,133.351883 247.461838,133.232849 246.369537,133.114243 
	C244.976807,132.456131 243.951538,131.797592 243.204834,130.695145 
	C245.711227,131.049835 247.939102,131.848419 250.166962,132.647018 
z"/>
<path fill="#9C4B49" opacity="1.000000" stroke="none" 
	d="
M404.483734,118.244385 
	C403.924286,118.252632 403.712494,118.124062 403.242981,117.540604 
	C403.401703,116.432213 403.818085,115.778709 404.419495,115.121536 
	C404.604492,115.117851 404.971954,115.073883 405.393982,115.075500 
	C406.646210,115.188934 407.476410,115.300735 408.306610,115.412544 
	C408.126190,115.992859 407.945770,116.573174 407.773193,117.458984 
	C406.797882,117.878845 405.814636,117.993210 404.483734,118.244385 
z"/>
<path fill="#E1BBB9" opacity="1.000000" stroke="none" 
	d="
M306.599854,179.368179 
	C306.027954,179.915192 305.539062,180.061569 304.812042,180.287552 
	C305.114502,178.587296 305.655121,176.807449 306.569580,174.998871 
	C306.856628,176.302612 306.769775,177.635086 306.599854,179.368179 
z"/>
<path fill="#8A2626" opacity="1.000000" stroke="none" 
	d="
M251.920975,90.822899 
	C251.959656,90.585571 251.998322,90.348251 252.030975,89.749496 
	C253.121780,89.209702 254.218597,89.031349 255.649841,88.876312 
	C256.546356,89.364616 257.108459,89.829605 257.667633,90.815018 
	C255.750122,91.164597 253.835556,90.993752 251.920975,90.822899 
z"/>
<path fill="#D9AFAC" opacity="1.000000" stroke="none" 
	d="
M347.769714,86.825874 
	C347.973541,87.110970 347.990570,87.569839 347.623291,87.829941 
	C346.775726,88.193962 346.295410,88.297890 345.471497,88.308746 
	C344.421387,88.136185 343.714874,88.056694 342.977356,87.732979 
	C342.776978,87.202461 342.668823,86.894646 342.621948,86.565315 
	C344.269928,86.557137 345.917908,86.548958 347.769714,86.825874 
z"/>
<path fill="#D9AFAC" opacity="1.000000" stroke="none" 
	d="
M161.742691,107.533546 
	C161.918610,108.612419 162.094528,109.691299 162.033051,110.895241 
	C160.863327,110.287201 159.931000,109.554092 159.000061,108.508530 
	C159.470184,107.913666 159.938965,107.631256 160.861938,107.406570 
	C161.316147,107.464287 161.742691,107.533546 161.742691,107.533546 
z"/>
<path fill="#9C4B49" opacity="1.000000" stroke="none" 
	d="
M342.331940,86.496796 
	C342.668823,86.894646 342.776978,87.202461 342.771057,87.987839 
	C341.308655,87.942055 340.021545,87.397202 338.734436,86.852348 
	C339.205292,86.679016 339.676117,86.505684 340.516113,86.235245 
	C341.270813,86.234848 341.656372,86.331566 342.331940,86.496796 
z"/>
<path fill="#B87372" opacity="1.000000" stroke="none" 
	d="
M226.630402,89.835312 
	C227.024353,89.754791 227.103104,90.230652 227.085068,90.471001 
	C225.177292,90.953278 223.287552,91.195213 221.187607,91.116653 
	C222.730423,90.502724 224.483429,90.209282 226.630402,89.835312 
z"/>
<path fill="#E1BBB9" opacity="1.000000" stroke="none" 
	d="
M328.961700,160.968948 
	C329.129272,160.601746 329.296875,160.234543 329.819794,159.537582 
	C330.613403,159.118179 331.051697,159.028564 331.489990,158.938934 
	C331.174561,159.938766 330.859100,160.938599 329.999573,161.855118 
	C329.298615,161.499451 329.134033,161.231827 328.961700,160.968948 
z"/>
<path fill="#E1BBB9" opacity="1.000000" stroke="none" 
	d="
M162.247025,114.979218 
	C163.025742,115.173935 163.479523,115.486969 164.083405,115.963089 
	C164.266342,116.629669 164.299210,117.133171 164.145294,117.967133 
	C162.205460,117.914528 160.223831,117.676918 162.247025,114.979218 
z"/>
<path fill="#D9AFAC" opacity="1.000000" stroke="none" 
	d="
M146.884460,95.164413 
	C146.611969,96.003502 146.216446,96.558853 145.502228,97.468208 
	C144.850174,98.009384 144.516846,98.196564 143.893860,98.270943 
	C143.403015,98.108688 143.201782,98.059235 143.002319,97.723267 
	C143.009430,97.057480 143.014755,96.678185 143.020081,96.298897 
	C144.267212,95.826157 145.514343,95.353416 146.884460,95.164413 
z"/>
<path fill="#9F504D" opacity="1.000000" stroke="none" 
	d="
M102.013779,130.950104 
	C101.424156,131.494400 100.834534,132.038696 100.117432,132.865509 
	C99.573853,133.193787 99.157738,133.239563 98.435150,133.357452 
	C97.910851,133.272171 97.693039,133.114761 97.233215,132.471619 
	C97.687477,131.367188 98.383751,130.748505 99.407829,130.127197 
	C100.495018,130.399750 101.254402,130.674927 102.013779,130.950104 
z"/>
<path fill="#A25350" opacity="1.000000" stroke="none" 
	d="
M377.046661,125.443741 
	C376.367462,126.257965 375.330658,126.907555 374.141754,127.835663 
	C373.503510,128.104401 373.017395,128.094604 372.217499,127.897850 
	C373.498840,126.900291 375.093964,126.089699 377.046661,125.443741 
z"/>
<path fill="#B27370" opacity="1.000000" stroke="none" 
	d="
M337.558350,146.525177 
	C336.648712,147.516449 335.853058,148.257416 334.805420,149.109283 
	C335.189026,147.733475 335.824646,146.246735 336.727112,144.623520 
	C337.156647,144.676407 337.319366,144.865784 337.634888,145.396103 
	C337.749237,145.916306 337.710785,146.095596 337.558350,146.525177 
z"/>
<path fill="#A25350" opacity="1.000000" stroke="none" 
	d="
M355.763763,130.610855 
	C355.090546,131.433807 354.197296,132.022202 353.142761,132.901703 
	C352.492279,133.170639 352.003052,133.148453 351.194916,132.943298 
	C352.431885,131.965668 353.987793,131.170990 355.763763,130.610855 
z"/>
<path fill="#B27370" opacity="1.000000" stroke="none" 
	d="
M331.671326,158.588196 
	C331.051697,159.028564 330.613403,159.118179 329.954712,159.266495 
	C330.221924,158.185791 330.709534,157.046402 331.565674,155.931183 
	C331.906982,156.716034 331.879852,157.476730 331.671326,158.588196 
z"/>
<path fill="#DDB4B2" opacity="1.000000" stroke="none" 
	d="
M142.674713,96.132797 
	C143.014755,96.678185 143.009430,97.057480 142.630554,97.774612 
	C141.508224,98.070992 140.759460,98.029526 139.939667,97.704437 
	C139.623123,96.904839 139.377625,96.388863 139.205017,95.799911 
	C139.277924,95.726929 139.428177,95.585541 139.428177,95.585541 
	C140.395233,95.712593 141.362305,95.839645 142.674713,96.132797 
z"/>
<path fill="#E1BBB9" opacity="1.000000" stroke="none" 
	d="
M167.946060,120.604370 
	C168.770416,119.616829 169.636078,118.902565 170.831589,118.291580 
	C170.103424,119.222450 169.045395,120.050049 167.946060,120.604370 
z"/>
<path fill="#B27370" opacity="1.000000" stroke="none" 
	d="
M306.901306,172.401413 
	C307.256470,172.005127 307.576385,171.934906 308.119690,171.738007 
	C308.235626,172.805252 308.111511,173.923111 307.607605,175.092255 
	C307.112793,174.363541 306.997803,173.583542 306.901306,172.401413 
z"/>
<path fill="#984946" opacity="1.000000" stroke="none" 
	d="
M274.737701,67.065704 
	C274.570312,68.008026 274.122803,69.000458 273.312317,69.984238 
	C272.943604,69.553970 272.937836,69.132347 273.023315,68.407623 
	C273.562256,67.774948 274.009918,67.445374 274.737701,67.065704 
z"/>
<path fill="#E1BBB9" opacity="1.000000" stroke="none" 
	d="
M312.292908,185.948776 
	C312.618744,185.213623 313.308197,184.515060 314.293121,183.772263 
	C313.944550,184.480469 313.300537,185.232910 312.292908,185.948776 
z"/>
<path fill="#B27370" opacity="1.000000" stroke="none" 
	d="
M328.626831,161.006989 
	C329.134033,161.231827 329.298615,161.499451 329.660431,161.885574 
	C329.865387,161.999329 329.752625,162.362213 329.662720,162.529449 
	C329.027557,162.843460 328.482300,162.990265 327.656525,163.177750 
	C327.681335,162.493973 327.986633,161.769501 328.626831,161.006989 
z"/>
<path fill="#984946" opacity="1.000000" stroke="none" 
	d="
M270.630615,75.105637 
	C270.228668,75.001656 270.139069,74.766380 269.957336,74.164787 
	C270.373627,73.216278 270.882050,72.634087 271.682159,72.008820 
	C271.630219,72.968613 271.286591,73.971481 270.630615,75.105637 
z"/>
<path fill="#F6E3E1" opacity="1.000000" stroke="none" 
	d="
M196.875732,89.911285 
	C196.547729,90.458107 196.072388,90.745621 195.303375,91.023972 
	C195.582611,90.560524 196.155518,90.106255 196.875732,89.911285 
z"/>
<path fill="#DDB4B2" opacity="1.000000" stroke="none" 
	d="
M241.833084,88.637703 
	C241.995621,89.121521 242.004013,89.357025 241.657043,89.949921 
	C240.856903,90.162766 240.412125,90.018204 239.967331,89.873642 
	C239.966034,89.447708 239.964752,89.021774 239.980499,88.274811 
	C240.558014,88.098976 241.118484,88.244179 241.833084,88.637703 
z"/>
<path fill="#DDB4B2" opacity="1.000000" stroke="none" 
	d="
M137.916992,93.084854 
	C138.539749,93.626686 139.081009,94.251778 139.525238,95.231209 
	C139.428177,95.585541 139.277924,95.726929 139.007843,95.568344 
	C138.382706,94.718063 138.027634,94.026367 137.672562,93.334663 
	C137.672562,93.334663 137.835510,93.168121 137.916992,93.084854 
z"/>
<path fill="#860A09" opacity="1.000000" stroke="none" 
	d="
M338.376160,86.663223 
	C340.021545,87.397202 341.308655,87.942055 342.802063,88.232056 
	C343.714874,88.056694 344.421387,88.136185 345.598785,88.648621 
	C348.536316,89.519691 351.002991,89.957825 353.469666,90.395958 
	C353.805573,90.434822 354.141510,90.473686 354.907593,90.893127 
	C358.888367,91.877892 362.438995,92.482086 365.989594,93.086281 
	C366.696136,93.154350 367.402710,93.222420 368.583069,93.719360 
	C371.188873,94.574272 373.320801,95.000328 375.452759,95.426376 
	C375.793365,95.458382 376.133942,95.490387 376.909363,95.890427 
	C380.563629,96.858360 383.783081,97.458260 387.002502,98.058159 
	C387.705963,98.131584 388.409424,98.205009 389.564514,98.684258 
	C391.672882,99.437134 393.329590,99.784180 394.986328,100.131226 
	C396.116547,100.337822 397.246796,100.544426 398.750336,101.184967 
	C401.393341,102.711479 403.663025,103.804031 406.134552,105.176430 
	C406.996307,105.589775 407.656189,105.723282 408.685547,105.855011 
	C410.034607,105.948387 411.014191,106.043541 412.034821,106.474426 
	C412.048523,108.567749 412.021179,110.325333 411.671326,112.152039 
	C410.882263,113.126495 410.415741,114.031822 409.949219,114.937149 
	C409.949219,114.937149 409.489807,115.078445 409.248962,114.701996 
	C409.001831,113.870384 408.995575,113.415222 408.990143,112.554756 
	C408.031128,110.484924 407.436127,107.870331 406.042572,107.335175 
	C401.966370,105.769836 397.591156,104.945992 393.296234,103.998726 
	C389.598633,103.183205 385.785828,102.838814 382.136719,101.864037 
	C371.688599,99.073044 361.394440,95.637497 350.856812,93.269188 
	C340.637604,90.972443 330.117493,90.018715 319.890167,87.750763 
	C316.840546,87.074493 312.275299,87.628502 311.378387,82.988861 
	C313.844910,82.968491 315.928162,82.954987 318.011414,82.941483 
	C318.724304,83.012184 319.437195,83.082878 320.635193,83.566383 
	C323.575317,84.440994 326.030365,84.902794 328.485413,85.364601 
	C329.415039,85.443192 330.344696,85.521774 331.738831,85.897530 
	C332.808746,86.092087 333.414185,85.989479 334.019592,85.886871 
	C335.352356,86.082611 336.685089,86.278351 338.376160,86.663223 
z"/>
<path fill="#984946" opacity="1.000000" stroke="none" 
	d="
M292.011597,52.652718 
	C290.115753,51.804905 288.216675,50.604668 285.481079,48.875763 
	C283.757782,52.702702 282.066528,56.610470 280.230621,60.449032 
	C279.627686,61.709641 278.649719,62.790848 277.502869,64.025963 
	C279.136322,58.523605 280.996277,52.902809 283.232361,47.435863 
	C283.502808,46.774712 286.312469,46.281898 287.065613,46.859020 
	C288.979340,48.325439 290.393921,50.443241 292.011597,52.652718 
z"/>
<path fill="#984946" opacity="1.000000" stroke="none" 
	d="
M317.758728,82.671356 
	C315.928162,82.954987 313.844910,82.968491 311.167908,82.961182 
	C310.574127,82.940369 310.149506,82.928261 310.149506,82.928261 
	C309.873169,82.383186 309.596863,81.838112 309.339600,80.985176 
	C312.074463,81.251945 314.790283,81.826591 317.758728,82.671356 
z"/>
<path fill="#984946" opacity="1.000000" stroke="none" 
	d="
M328.287201,85.074631 
	C326.030365,84.902794 323.575317,84.440994 320.983948,83.649498 
	C323.261414,83.808083 325.675201,84.296371 328.287201,85.074631 
z"/>
<path fill="#984946" opacity="1.000000" stroke="none" 
	d="
M309.157349,80.305618 
	C304.954285,80.589577 305.923065,76.400177 304.394470,73.912811 
	C306.036377,75.691063 307.546112,77.840645 309.157349,80.305618 
z"/>
<path fill="#984946" opacity="1.000000" stroke="none" 
	d="
M304.033020,71.639999 
	C302.437042,69.748543 300.852478,67.499496 299.420990,64.891037 
	C301.064178,66.781883 302.554260,69.032143 304.033020,71.639999 
z"/>
<path fill="#984946" opacity="1.000000" stroke="none" 
	d="
M298.976807,62.672501 
	C297.410461,61.091919 295.851837,59.162762 294.442993,56.876129 
	C296.056702,58.453743 297.520630,60.388836 298.976807,62.672501 
z"/>
<path fill="#984946" opacity="1.000000" stroke="none" 
	d="
M294.194702,55.507248 
	C293.553223,55.318813 292.881439,54.816582 292.296875,53.955563 
	C292.977509,54.128994 293.570923,54.661221 294.194702,55.507248 
z"/>
<path fill="#984946" opacity="1.000000" stroke="none" 
	d="
M333.873108,85.693283 
	C333.414185,85.989479 332.808746,86.092087 332.087433,85.934502 
	C332.556580,85.616104 333.141602,85.557899 333.873108,85.693283 
z"/>
<path fill="#9A0102" opacity="1.000000" stroke="none" 
	d="
M309.747437,82.953949 
	C310.149506,82.928261 310.574127,82.940369 310.784607,82.968048 
	C312.275299,87.628502 316.840546,87.074493 319.890167,87.750763 
	C330.117493,90.018715 340.637604,90.972443 350.856812,93.269188 
	C361.394440,95.637497 371.688599,99.073044 382.136719,101.864037 
	C385.785828,102.838814 389.598633,103.183205 393.296234,103.998726 
	C397.591156,104.945992 401.966370,105.769836 406.042572,107.335175 
	C407.436127,107.870331 408.031128,110.484924 408.658722,112.566414 
	C407.884125,112.990364 407.441772,112.997337 406.589539,113.001221 
	C404.447845,113.660942 402.716003,114.323753 400.653931,114.987061 
	C399.883423,114.989479 399.443085,114.991417 398.765747,114.696159 
	C394.905762,112.811783 391.289520,111.344345 387.624451,115.000900 
	C386.837006,114.952011 386.388489,114.899734 385.726135,114.609032 
	C384.017731,114.547607 382.523163,114.724602 380.661346,115.015381 
	C379.927826,117.062126 379.561554,118.995087 379.195312,120.928055 
	C376.743134,121.684906 374.315735,122.537094 371.834351,123.181442 
	C362.965332,125.484497 354.047913,127.607834 345.214752,130.038757 
	C342.335083,130.831253 338.897522,131.580719 339.284241,136.308716 
	C339.398163,136.739059 339.423553,136.874817 339.409241,136.941589 
	C337.653412,138.621704 335.314545,139.921432 334.274170,141.902908 
	C329.867920,150.294891 326.095612,159.024536 321.566345,167.344803 
	C319.706299,170.761673 316.518341,173.455658 313.934418,176.478470 
	C313.457123,176.235199 312.979797,175.991928 312.502472,175.748657 
	C312.502472,171.313217 312.502472,166.877792 312.197876,162.189484 
	C311.918060,161.508743 311.942780,161.080902 312.378357,160.260040 
	C314.996185,157.025787 316.004211,145.490891 314.234436,142.502090 
	C314.046478,142.184662 313.338104,142.175369 312.871185,142.023132 
	C312.186035,140.992249 311.500885,139.961365 310.463440,138.938324 
	C309.896301,138.701248 309.668365,138.469223 309.241882,138.091858 
	C309.036621,137.548828 309.016693,137.163971 308.935974,136.091888 
	C306.991974,134.608109 305.136871,133.200348 303.221069,133.112259 
	C288.567841,132.438507 273.781281,134.482086 259.319672,130.085876 
	C252.438339,127.994011 245.293320,126.732780 238.224380,125.310745 
	C234.836395,124.629189 231.060287,123.415565 227.969467,124.275101 
	C222.896622,125.685822 219.311386,124.362061 215.918945,120.668396 
	C215.918701,119.899658 215.908539,119.460518 215.898361,119.021370 
	C214.228394,117.022064 212.870743,113.795387 210.824524,113.274727 
	C206.335114,112.132370 201.497086,112.360100 196.360413,112.065559 
	C195.919418,112.102699 195.946716,112.078384 195.883392,111.672302 
	C188.219498,109.476379 180.678192,107.326378 172.989716,111.263008 
	C171.477753,112.037148 167.799286,111.947792 167.655029,111.478111 
	C166.726868,108.456039 164.117950,105.316811 167.412903,102.007019 
	C168.871948,102.001144 169.933243,101.997803 171.214600,102.258240 
	C172.248688,102.304214 173.446762,102.355019 173.816467,101.826439 
	C176.994568,97.282547 180.349701,94.074310 186.366653,97.723152 
	C187.249542,98.258560 189.445374,96.628975 191.033707,96.001122 
	C191.766556,95.993149 192.499390,95.985176 193.696259,96.372978 
	C194.815369,97.170441 195.493301,97.954468 196.122131,97.916878 
	C206.748596,97.281647 217.375290,96.618713 227.981018,95.716110 
	C229.061386,95.624168 230.007660,93.956436 231.016159,93.019943 
	C231.755478,93.008339 232.494797,92.996750 233.900360,93.284973 
	C244.823502,93.699684 255.083817,93.989761 265.334686,93.791656 
	C267.565857,93.748535 269.763214,91.957970 271.980225,90.982376 
	C271.984283,90.992523 271.973145,90.978271 272.348755,90.979393 
	C273.474091,89.975365 274.223755,88.970215 274.972717,87.639954 
	C274.971222,86.881485 274.970398,86.448135 274.969574,86.014786 
	C274.462677,84.285515 273.495880,82.537964 273.563721,80.831543 
	C273.651245,78.629768 274.187622,76.263046 275.203156,74.318520 
	C277.405121,70.102142 279.892914,66.013641 282.550507,62.065865 
	C283.820648,60.179092 285.506531,58.001873 287.462952,57.364407 
	C288.609894,56.990696 291.260864,59.031361 292.191406,60.603745 
	C295.101440,65.521103 297.517944,70.730736 300.120453,75.829819 
	C302.075745,79.660812 304.454742,82.938858 309.747437,82.953949 
z"/>
<path fill="#8A2626" opacity="1.000000" stroke="none" 
	d="
M274.663391,85.850266 
	C274.970398,86.448135 274.971222,86.881485 274.627441,87.648880 
	C273.821930,87.961166 273.360992,87.939407 272.900055,87.917648 
	C271.360474,86.616386 270.003937,84.886589 268.231842,84.129700 
	C266.309540,83.308655 265.130554,82.929703 267.349976,80.812653 
	C269.899841,82.337425 272.128540,84.011581 274.663391,85.850266 
z"/>
<path fill="#8A2626" opacity="1.000000" stroke="none" 
	d="
M268.295349,79.949783 
	C268.370087,79.310722 268.791931,78.629135 269.510620,77.829376 
	C269.419128,78.443222 269.030792,79.175240 268.295349,79.949783 
z"/>
<path fill="#890707" opacity="1.000000" stroke="none" 
	d="
M93.148560,82.894760 
	C89.310844,78.720512 85.473129,74.546265 81.316284,70.287994 
	C80.392044,69.374550 79.786934,68.545120 78.920456,67.207626 
	C78.129768,66.440865 77.600441,66.182175 77.071121,65.923477 
	C76.157059,65.124802 75.242996,64.326126 74.165825,62.919930 
	C73.282303,61.922489 72.561897,61.532574 71.841484,61.142654 
	C70.626457,60.024490 69.411438,58.906326 68.068787,57.196991 
	C67.275719,55.448212 66.610283,54.290604 66.098724,52.815247 
	C67.244331,51.949673 68.236053,51.401844 69.575630,50.873268 
	C71.277130,51.258480 72.630775,51.624435 74.279243,51.981712 
	C75.049461,51.679890 75.524857,51.386749 76.000252,51.093609 
	C76.917557,51.490131 77.834862,51.886654 78.889915,52.946629 
	C79.648804,54.398014 80.141533,55.355217 80.915184,55.942097 
	C83.229263,57.697544 85.653305,59.308041 87.646721,60.978722 
	C84.078728,59.974953 80.898430,58.967590 77.718124,57.960224 
	C77.379906,58.413837 77.041687,58.867447 76.703476,59.321060 
	C80.386909,63.274376 83.538383,67.998016 87.880951,70.996864 
	C94.084785,75.281052 96.596252,81.954338 100.642014,87.605904 
	C101.826416,89.260406 101.522530,91.980316 101.593445,94.015930 
	C99.829475,91.902321 98.372841,89.984688 96.916206,88.067055 
	C96.916206,88.067055 96.721024,87.729202 96.744263,87.206757 
	C95.561188,85.421127 94.354874,84.157944 93.148560,82.894760 
z"/>
<path fill="#861816" opacity="1.000000" stroke="none" 
	d="
M88.034409,60.975128 
	C85.653305,59.308041 83.229263,57.697544 80.915184,55.942097 
	C80.141533,55.355217 79.648804,54.398014 79.046951,53.216358 
	C84.824928,55.607422 90.898270,57.895248 96.267586,61.294971 
	C104.071671,66.236320 111.368065,71.979492 118.731964,77.978256 
	C117.724152,78.710358 116.865318,78.844940 115.897369,78.764893 
	C115.590675,78.281616 115.333046,78.096588 115.002930,77.627831 
	C113.324081,76.172386 111.657654,75.084274 109.736771,73.887207 
	C108.997528,73.513290 108.512741,73.248322 107.973587,72.646881 
	C106.609657,71.539810 105.300102,70.769203 103.695435,69.974762 
	C102.936745,69.633430 102.473160,69.315941 101.969109,68.642029 
	C97.616905,65.854752 93.305161,63.423878 88.753670,60.988396 
	C88.513924,60.983788 88.034409,60.975132 88.034409,60.975128 
z"/>
<path fill="#7E0E0E" opacity="1.000000" stroke="none" 
	d="
M69.227776,50.854012 
	C68.236053,51.401844 67.244331,51.949673 65.785263,52.657520 
	C64.440056,52.701279 63.562199,52.585022 62.684338,52.468761 
	C62.684338,52.468761 62.689003,52.391251 62.628426,51.998699 
	C61.212471,51.243134 59.857094,50.880119 58.501720,50.517097 
	C57.246025,50.431561 55.990330,50.346024 54.353283,49.786373 
	C53.312687,48.872742 52.653442,48.433224 51.994198,47.993706 
	C51.994198,47.993706 51.785252,47.691479 51.733368,47.516068 
	C51.954025,43.526253 54.067432,43.432434 57.016922,44.543121 
	C58.754539,45.197456 60.633186,45.477280 62.875771,45.824394 
	C63.303131,45.723248 63.689892,45.746830 63.906944,46.173553 
	C65.825264,48.018185 67.526520,49.436096 69.227776,50.854012 
z"/>
<path fill="#890707" opacity="1.000000" stroke="none" 
	d="
M127.942902,86.064491 
	C128.870422,86.839897 129.797928,87.615311 130.661865,88.808594 
	C130.836319,89.406609 131.074371,89.586746 131.312408,89.766884 
	C131.312408,89.766884 131.127457,89.892273 131.101868,90.210083 
	C131.058365,91.348984 131.040466,92.170074 130.662415,92.957886 
	C128.203537,90.608322 126.104820,88.292030 124.346756,85.981796 
	C125.141220,86.007927 125.595024,86.027992 126.183784,86.260361 
	C126.860130,86.336594 127.401512,86.200546 127.942902,86.064491 
z"/>
<path fill="#8F4040" opacity="1.000000" stroke="none" 
	d="
M69.575630,50.873264 
	C67.526520,49.436096 65.825264,48.018185 64.085373,46.249031 
	C67.264656,47.222179 70.482552,48.546566 73.875084,50.539711 
	C74.027946,51.469109 74.006187,51.729752 73.984421,51.990391 
	C72.630775,51.624435 71.277130,51.258480 69.575630,50.873264 
z"/>
<path fill="#890707" opacity="1.000000" stroke="none" 
	d="
M116.006493,78.979523 
	C116.865318,78.844940 117.724152,78.710358 118.785286,78.316177 
	C119.465942,78.217712 119.944298,78.378838 120.441086,78.874336 
	C120.739510,79.354500 121.019508,79.500290 121.299500,79.646072 
	C121.299500,79.646072 121.422630,79.993538 121.279472,80.549255 
	C121.430847,82.068825 121.725388,83.032684 121.651840,83.995102 
	C119.524666,82.322273 117.765579,80.650902 116.006493,78.979523 
z"/>
<path fill="#861816" opacity="1.000000" stroke="none" 
	d="
M131.022568,92.991158 
	C131.040466,92.170074 131.058365,91.348984 131.172974,90.123917 
	C132.577942,90.871086 133.886215,92.022247 135.512482,93.640129 
	C135.902756,94.732964 135.975067,95.359085 135.667953,95.991653 
	C134.530701,95.990166 133.772888,95.982224 133.005707,95.625313 
	C132.338425,94.514610 131.680496,93.752884 131.022568,92.991158 
z"/>
<path fill="#861816" opacity="1.000000" stroke="none" 
	d="
M122.019928,83.996544 
	C121.725388,83.032684 121.430847,82.068825 121.208923,80.719536 
	C123.119011,81.699821 124.956490,83.065544 126.638351,84.885559 
	C126.257019,85.526230 126.112381,85.762299 126.048828,86.048065 
	C125.595024,86.027992 125.141220,86.007927 124.224274,85.720459 
	C123.180725,84.967560 122.600327,84.482056 122.019928,83.996544 
z"/>
<path fill="#A25350" opacity="1.000000" stroke="none" 
	d="
M136.047379,95.985214 
	C135.975067,95.359085 135.902756,94.732964 135.813477,93.792419 
	C136.210815,93.408310 136.625107,93.338631 137.355988,93.301811 
	C138.027634,94.026367 138.382706,94.718063 138.934937,95.641327 
	C139.377625,96.388863 139.623123,96.904839 139.857727,97.807144 
	C139.846802,98.193481 139.683228,98.399033 139.489075,98.357605 
	C139.294937,98.316177 138.908844,98.408783 138.678909,98.192551 
	C137.648438,97.312622 136.847900,96.648918 136.047379,95.985214 
z"/>
<path fill="#980103" opacity="1.000000" stroke="none" 
	d="
M126.183784,86.260353 
	C126.112381,85.762299 126.257019,85.526230 126.660461,85.227386 
	C127.148827,85.263702 127.459465,85.412491 127.856506,85.812889 
	C127.401512,86.200546 126.860130,86.336594 126.183784,86.260353 
z"/>
<path fill="#861816" opacity="1.000000" stroke="none" 
	d="
M74.279243,51.981712 
	C74.006187,51.729752 74.027946,51.469109 74.052055,50.815033 
	C74.510040,50.514694 74.965683,50.607792 75.710785,50.897251 
	C75.524857,51.386749 75.049461,51.679890 74.279243,51.981712 
z"/>
<path fill="#A25350" opacity="1.000000" stroke="none" 
	d="
M121.235245,79.414825 
	C121.019508,79.500290 120.739510,79.354500 120.611710,79.068962 
	C120.763908,78.929214 121.170998,79.183571 121.235245,79.414825 
z"/>
<path fill="#861816" opacity="1.000000" stroke="none" 
	d="
M131.306198,89.528397 
	C131.074371,89.586746 130.836319,89.406609 130.762939,89.109055 
	C130.927582,88.991638 131.299988,89.289909 131.306198,89.528397 
z"/>
<path fill="#B27370" opacity="1.000000" stroke="none" 
	d="
M326.449707,164.881348 
	C326.235901,165.882812 325.691956,166.964600 324.851624,168.161011 
	C325.076721,167.170990 325.598145,166.066315 326.449707,164.881348 
z"/>
<path fill="#B27370" opacity="1.000000" stroke="none" 
	d="
M333.826233,150.274292 
	C333.785034,151.144592 333.404999,152.069473 332.725342,153.090134 
	C332.779633,152.233566 333.133514,151.281235 333.826233,150.274292 
z"/>
<path fill="#B27370" opacity="1.000000" stroke="none" 
	d="
M309.019531,169.813629 
	C308.745880,169.289169 308.791199,168.603134 309.057495,167.811096 
	C309.298523,168.354095 309.318512,169.003082 309.019531,169.813629 
z"/>
<path fill="#9C4B49" opacity="1.000000" stroke="none" 
	d="
M411.993805,106.138695 
	C411.014191,106.043541 410.034607,105.948387 408.614990,105.558006 
	C408.057159,104.663872 407.939301,104.064949 407.821411,103.466026 
	C411.082581,104.307426 414.411316,104.970100 417.542419,106.155083 
	C418.105560,106.368202 417.854187,108.733574 417.511108,109.796234 
	C415.360138,108.371040 413.676971,107.254868 411.993805,106.138695 
z"/>
<path fill="#7E0E0E" opacity="1.000000" stroke="none" 
	d="
M412.034821,106.474426 
	C413.676971,107.254868 415.360138,108.371040 417.126465,109.852280 
	C416.167999,110.990593 415.126312,111.763832 413.434448,112.429176 
	C412.520813,112.241837 412.257324,112.162384 411.993835,112.082924 
	C412.021179,110.325333 412.048523,108.567749 412.034821,106.474426 
z"/>
<path fill="#9C4B49" opacity="1.000000" stroke="none" 
	d="
M365.763580,92.792572 
	C362.438995,92.482086 358.888367,91.877892 355.156860,90.940399 
	C358.496460,91.237694 362.017029,91.868279 365.763580,92.792572 
z"/>
<path fill="#9C4B49" opacity="1.000000" stroke="none" 
	d="
M386.777496,97.774429 
	C383.783081,97.458260 380.563629,96.858360 377.162415,95.933304 
	C380.171265,96.235664 383.361877,96.863182 386.777496,97.774429 
z"/>
<path fill="#9C4B49" opacity="1.000000" stroke="none" 
	d="
M405.932709,104.896591 
	C403.663025,103.804031 401.393341,102.711479 399.086304,101.267288 
	C401.216553,101.434715 403.384125,101.953781 405.795410,103.068321 
	C406.003632,104.074722 405.968170,104.485657 405.932709,104.896591 
z"/>
<path fill="#9C4B49" opacity="1.000000" stroke="none" 
	d="
M353.282654,90.121933 
	C351.002991,89.957825 348.536316,89.519691 345.942383,88.741684 
	C346.295410,88.297890 346.775726,88.193962 347.626770,88.059494 
	C349.696899,88.635284 351.396271,89.241600 353.282654,90.121933 
z"/>
<path fill="#9C4B49" opacity="1.000000" stroke="none" 
	d="
M375.255493,95.140244 
	C373.320801,95.000328 371.188873,94.574272 368.925476,93.814819 
	C370.882111,93.938980 372.970154,94.396545 375.255493,95.140244 
z"/>
<path fill="#9C4B49" opacity="1.000000" stroke="none" 
	d="
M394.813232,99.815613 
	C393.329590,99.784180 391.672882,99.437134 389.904022,98.785172 
	C391.407990,98.820168 393.024078,99.160088 394.813232,99.815613 
z"/>
<path fill="#9C4B49" opacity="1.000000" stroke="none" 
	d="
M411.671326,112.152039 
	C412.257324,112.162384 412.520813,112.241837 413.131317,112.548096 
	C412.514130,113.520576 411.549896,114.266243 410.267456,114.974533 
	C410.415741,114.031822 410.882263,113.126495 411.671326,112.152039 
z"/>
<path fill="#7E0E0E" opacity="1.000000" stroke="none" 
	d="
M406.134552,105.176422 
	C405.968170,104.485657 406.003632,104.074722 406.018127,103.354614 
	C406.410645,103.107529 406.824188,103.169624 407.529541,103.348877 
	C407.939301,104.064949 408.057159,104.663872 408.245544,105.559784 
	C407.656189,105.723282 406.996307,105.589775 406.134552,105.176422 
z"/>
<path fill="#7E0E0E" opacity="1.000000" stroke="none" 
	d="
M406.999420,113.004311 
	C407.441772,112.997337 407.884125,112.990364 408.657898,112.971725 
	C408.995575,113.415222 409.001831,113.870384 409.011292,114.666458 
	C409.014465,115.007370 408.713593,115.303383 408.510101,115.357964 
	C407.476410,115.300735 406.646210,115.188934 405.545471,114.819298 
	C405.849762,114.042419 406.424591,113.523361 406.999420,113.004311 
z"/>
<path fill="#850C0B" opacity="1.000000" stroke="none" 
	d="
M215.909027,120.997986 
	C219.311386,124.362061 222.896622,125.685822 227.969467,124.275101 
	C231.060287,123.415565 234.836395,124.629189 238.224380,125.310745 
	C245.293320,126.732780 252.438339,127.994011 259.319672,130.085876 
	C273.781281,134.482086 288.567841,132.438507 303.221069,133.112259 
	C305.136871,133.200348 306.991974,134.608109 308.906067,135.802368 
	C297.167480,135.869278 285.398010,135.538437 273.163300,135.378159 
	C271.073853,135.512970 269.449677,135.477219 267.216614,135.070526 
	C261.738800,134.110703 256.869934,133.521835 252.001038,132.932983 
	C251.588852,132.894608 251.176651,132.856232 250.465714,132.732437 
	C247.939102,131.848419 245.711227,131.049835 243.089066,130.398651 
	C242.024994,130.493866 241.355225,130.441696 240.183182,130.037628 
	C238.128983,129.399582 236.577057,129.113419 235.025131,128.827240 
	C230.641846,128.947388 226.255951,129.209579 221.876343,129.129257 
	C219.602112,129.087540 217.338989,128.440277 214.950287,127.408653 
	C215.189484,124.833153 215.549255,122.915565 215.909027,120.997986 
z"/>
<path fill="#923937" opacity="1.000000" stroke="none" 
	d="
M215.918945,120.668396 
	C215.549255,122.915565 215.189484,124.833153 214.753906,127.123322 
	C213.087540,126.519554 211.497009,125.543190 209.658981,124.414917 
	C211.409027,122.525658 212.775345,121.050652 214.297974,119.239632 
	C214.779709,118.874908 215.100723,118.900803 215.657852,119.001335 
	C215.908539,119.460518 215.918701,119.899658 215.918945,120.668396 
z"/>
<path fill="#923937" opacity="1.000000" stroke="none" 
	d="
M204.266479,116.139656 
	C207.212372,114.691879 210.344635,113.853653 212.992035,117.409912 
	C210.203308,117.328651 207.348938,116.886185 204.266479,116.139656 
z"/>
<path fill="#A25350" opacity="1.000000" stroke="none" 
	d="
M235.143311,129.136017 
	C236.577057,129.113419 238.128983,129.399582 239.850220,129.982971 
	C238.433517,130.001740 236.847488,129.723267 235.143311,129.136017 
z"/>
<path fill="#890707" opacity="1.000000" stroke="none" 
	d="
M102.293686,130.923492 
	C101.254402,130.674927 100.495018,130.399750 99.269730,129.814407 
	C98.187050,128.309753 97.570274,127.115273 96.942627,125.490997 
	C96.741730,124.230820 96.551697,123.400452 96.361664,122.570091 
	C96.575272,121.651360 96.788879,120.732628 97.448547,119.392044 
	C101.775116,111.407265 106.136841,103.926483 102.351898,95.035431 
	C106.338158,98.008049 107.908180,101.863205 106.662308,106.294968 
	C105.296356,111.153854 103.896088,116.174347 101.421410,120.501396 
	C99.018501,124.702950 100.472359,126.401566 104.001152,128.338593 
	C104.022171,129.204636 104.041771,129.699387 104.061371,130.194138 
	C103.565445,130.428391 103.069519,130.662643 102.293686,130.923492 
z"/>
<path fill="#9F504D" opacity="1.000000" stroke="none" 
	d="
M101.986855,94.992981 
	C106.136841,103.926483 101.775116,111.407265 97.544281,119.050934 
	C97.777931,116.943489 97.909805,114.485786 99.025299,112.614403 
	C103.507431,105.095078 101.692551,98.062569 97.960640,91.040321 
	C97.574905,90.314476 97.259056,89.551483 96.913498,88.436394 
	C98.372841,89.984688 99.829475,91.902321 101.597412,94.212143 
	C101.908714,94.604317 101.986855,94.992981 101.986855,94.992981 
z"/>
<path fill="#7E0E0E" opacity="1.000000" stroke="none" 
	d="
M96.953491,125.920799 
	C97.570274,127.115273 98.187050,128.309753 98.941925,129.817017 
	C98.383751,130.748505 97.687477,131.367188 96.897285,132.248840 
	C96.082375,130.944611 95.361382,129.377426 95.010223,127.314972 
	C95.904541,126.520065 96.429016,126.220436 96.953491,125.920799 
z"/>
<path fill="#9F504D" opacity="1.000000" stroke="none" 
	d="
M93.102646,83.252182 
	C94.354874,84.157944 95.561188,85.421127 96.667908,87.027222 
	C95.674500,86.890038 94.780678,86.409935 93.590866,85.841705 
	C93.215492,85.038918 93.136108,84.324265 93.102646,83.252182 
z"/>
<path fill="#9F504D" opacity="1.000000" stroke="none" 
	d="
M96.942627,125.490997 
	C96.429016,126.220436 95.904541,126.520065 95.091812,126.912476 
	C95.150803,125.614006 95.498055,124.222771 96.103485,122.700806 
	C96.551697,123.400452 96.741730,124.230820 96.942627,125.490997 
z"/>
<path fill="#9C4B49" opacity="1.000000" stroke="none" 
	d="
M379.562439,120.912506 
	C379.561554,118.995087 379.927826,117.062126 380.683167,115.301559 
	C381.049805,115.663475 381.027405,115.853004 381.004974,116.042542 
	C381.090363,117.316261 381.175751,118.589989 381.318481,120.232338 
	C380.893768,120.699631 380.411652,120.798302 379.562439,120.912506 
z"/>
<path fill="#A25350" opacity="1.000000" stroke="none" 
	d="
M367.788574,127.775215 
	C366.227539,128.689743 364.452362,129.361099 362.307007,129.968704 
	C363.816040,129.113983 365.695221,128.323013 367.788574,127.775215 
z"/>
<path fill="#A25350" opacity="1.000000" stroke="none" 
	d="
M347.833801,132.746094 
	C347.446838,133.199768 346.896301,133.431274 346.172913,133.483734 
	C346.556793,133.044418 347.113556,132.784164 347.833801,132.746094 
z"/>
<path fill="#A25350" opacity="1.000000" stroke="none" 
	d="
M344.050659,133.365112 
	C343.781372,134.008698 343.183197,134.500656 342.277954,134.970490 
	C342.554535,134.370056 343.138153,133.791763 344.050659,133.365112 
z"/>
<path fill="#8F4040" opacity="1.000000" stroke="none" 
	d="
M62.783516,52.771191 
	C63.562199,52.585022 64.440056,52.701279 65.631378,52.975266 
	C66.610283,54.290604 67.275719,55.448212 67.871529,56.947891 
	C66.162163,55.884510 64.522423,54.479065 62.783516,52.771191 
z"/>
<path fill="#8F4040" opacity="1.000000" stroke="none" 
	d="
M58.685436,50.796368 
	C59.857094,50.880119 61.212471,51.243134 62.589607,51.999657 
	C61.363968,51.953983 60.116558,51.514809 58.685436,50.796368 
z"/>
<path fill="#8F4040" opacity="1.000000" stroke="none" 
	d="
M51.996323,48.328331 
	C52.653442,48.433224 53.312687,48.872742 54.001976,49.636711 
	C53.354164,49.528423 52.676304,49.095692 51.996323,48.328331 
z"/>
<path fill="#9F504D" opacity="1.000000" stroke="none" 
	d="
M71.892487,61.459618 
	C72.561897,61.532574 73.282303,61.922489 74.002274,62.661156 
	C73.315712,62.598797 72.629601,62.187687 71.892487,61.459618 
z"/>
<path fill="#9F504D" opacity="1.000000" stroke="none" 
	d="
M77.123543,66.221985 
	C77.600441,66.182175 78.129768,66.440865 78.688965,67.010696 
	C78.204544,67.054726 77.690254,66.787605 77.123543,66.221985 
z"/>
<path fill="#7E0E0E" opacity="1.000000" stroke="none" 
	d="
M399.002777,114.993362 
	C399.443085,114.991417 399.883423,114.989479 401.058838,114.993240 
	C402.607452,115.041023 403.420959,115.083115 404.234497,115.125214 
	C403.818085,115.778709 403.401703,116.432213 402.915161,117.365601 
	C402.441284,117.755913 402.037506,117.866333 401.062866,117.729401 
	C398.325836,117.670135 396.159607,117.858223 393.993408,118.046310 
	C393.290344,117.948624 392.587280,117.850937 391.488708,117.354065 
	C390.966064,116.359955 390.838959,115.765038 391.145142,115.114090 
	C394.053223,115.036499 396.528015,115.014931 399.002777,114.993362 
z"/>
<path fill="#9C4B49" opacity="1.000000" stroke="none" 
	d="
M394.261902,118.314598 
	C396.159607,117.858223 398.325836,117.670135 400.749512,117.757538 
	C398.848145,118.216324 396.689270,118.399605 394.261902,118.314598 
z"/>
<path fill="#9C4B49" opacity="1.000000" stroke="none" 
	d="
M390.711853,115.170120 
	C390.838959,115.765038 390.966064,116.359955 391.148010,117.252884 
	C389.587067,117.218864 387.971283,116.886826 386.134521,115.974289 
	C385.922363,115.211670 385.931152,115.029556 385.939972,114.847450 
	C386.388489,114.899734 386.837006,114.952011 387.969727,115.045097 
	C389.339874,115.113976 390.025848,115.142052 390.711853,115.170120 
z"/>
<path fill="#860A09" opacity="1.000000" stroke="none" 
	d="
M385.726135,114.609032 
	C385.931152,115.029556 385.922363,115.211670 385.958008,115.663490 
	C384.612061,115.916672 383.221619,115.900146 381.418091,115.963089 
	C381.027405,115.853004 381.049805,115.663475 381.050415,115.187767 
	C382.523163,114.724602 384.017731,114.547607 385.726135,114.609032 
z"/>
<path fill="#890707" opacity="1.000000" stroke="none" 
	d="
M271.976166,90.972221 
	C269.763214,91.957970 267.565857,93.748535 265.334686,93.791656 
	C255.083817,93.989761 244.823502,93.699684 234.270065,93.285248 
	C233.982376,92.506783 233.991226,92.027863 233.969635,91.190643 
	C235.699081,90.595909 237.458969,90.359474 239.593094,89.998337 
	C240.412125,90.018204 240.856903,90.162766 241.659515,90.303391 
	C245.028122,90.475723 248.038925,90.651993 251.485352,90.825577 
	C253.835556,90.993752 255.750122,91.164597 257.893097,91.006966 
	C260.139771,90.439575 262.158081,90.200661 264.825989,90.257072 
	C267.642487,90.692345 269.809326,90.832283 271.976166,90.972221 
z"/>
<path fill="#890707" opacity="1.000000" stroke="none" 
	d="
M230.581024,93.009506 
	C230.007660,93.956436 229.061386,95.624168 227.981018,95.716110 
	C217.375290,96.618713 206.748596,97.281647 196.122131,97.916878 
	C195.493301,97.954468 194.815369,97.170441 194.062698,96.376022 
	C194.633743,95.540916 195.283020,94.746666 195.973892,94.708679 
	C207.361465,94.082466 218.754272,93.551437 230.581024,93.009506 
z"/>
<path fill="#890707" opacity="1.000000" stroke="none" 
	d="
M190.626007,95.988037 
	C189.445374,96.628975 187.249542,98.258560 186.366653,97.723152 
	C180.349701,94.074310 176.994568,97.282547 173.816467,101.826439 
	C173.446762,102.355019 172.248688,102.304214 171.217529,101.998093 
	C170.996246,101.127296 170.992050,100.780426 171.283325,100.280807 
	C172.094650,99.497856 172.610519,98.867645 173.126404,98.237442 
	C173.515442,97.776543 173.904465,97.315636 174.492950,96.322174 
	C174.741272,95.556183 174.790131,95.322739 174.891235,94.700905 
	C176.017273,89.497780 179.316788,93.664124 181.350937,92.724586 
	C182.026062,93.124954 182.701202,93.525330 183.688812,93.964508 
	C186.073654,94.660530 188.145981,95.317741 190.626007,95.988037 
z"/>
<path fill="#890707" opacity="1.000000" stroke="none" 
	d="
M135.667953,95.991653 
	C136.847900,96.648918 137.648438,97.312622 138.716095,98.516418 
	C139.742371,99.651161 140.501526,100.245804 141.572693,100.831879 
	C142.501923,100.816635 143.119141,100.809952 144.162323,100.857620 
	C147.007614,100.752480 149.445053,100.326103 151.842529,100.488747 
	C156.911148,100.832603 161.958878,101.484192 167.015182,102.009552 
	C164.117950,105.316811 166.726868,108.456039 167.655029,111.478111 
	C167.799286,111.947792 171.477753,112.037148 172.989716,111.263008 
	C180.678192,107.326378 188.219498,109.476379 195.883759,111.667084 
	C193.473557,112.185326 190.999695,112.302719 187.902771,112.745529 
	C186.815430,113.161545 186.351120,113.252144 185.886810,113.342751 
	C185.886810,113.342751 186.049881,113.114197 186.065918,112.974594 
	C181.983139,108.958832 178.267731,112.469620 174.416504,113.434341 
	C171.821075,114.084496 169.218018,114.704124 166.297424,115.182800 
	C164.797623,112.454659 163.618774,109.881142 162.091309,107.420586 
	C161.742691,107.533546 161.316147,107.464287 161.151398,107.325348 
	C158.729111,106.259361 156.481613,104.600426 154.211746,104.569252 
	C150.387146,104.516724 146.548340,105.496933 141.944870,106.099670 
	C138.082581,108.319313 135.065460,110.599327 131.884155,112.621002 
	C124.708084,117.181320 117.450821,121.613869 109.957870,126.078430 
	C109.404694,126.232567 109.120247,126.406677 108.835800,126.580780 
	C109.199699,126.729340 109.563599,126.877907 109.942673,127.286316 
	C109.984573,127.717606 110.011299,127.889053 110.038017,128.060501 
	C109.460350,128.312195 108.882683,128.563889 107.771339,128.721222 
	C106.813957,128.400238 106.390244,128.173630 105.982803,127.582359 
	C107.067635,126.114464 107.979797,124.766991 109.238625,123.960808 
	C111.576050,122.463875 114.232910,121.460701 116.548462,119.935654 
	C122.569122,115.970329 128.459152,111.807320 134.435760,107.774254 
	C138.577713,104.979233 138.696533,103.590652 135.234344,99.674393 
	C134.297791,98.615005 133.744354,97.216911 133.015060,95.974289 
	C133.772888,95.982224 134.530701,95.990166 135.667953,95.991653 
z"/>
<path fill="#9F504D" opacity="1.000000" stroke="none" 
	d="
M110.226593,126.098404 
	C117.450821,121.613869 124.708084,117.181320 131.884155,112.621002 
	C135.065460,110.599327 138.082581,108.319313 141.506119,106.132729 
	C141.893951,106.526535 141.949890,106.944183 142.003265,107.678581 
	C139.649292,109.667923 137.297897,111.340508 134.737366,113.265968 
	C126.611420,118.392029 118.694603,123.265213 110.407898,128.099457 
	C110.011299,127.889053 109.984573,127.717606 110.025452,127.056610 
	C110.093063,126.567070 110.226593,126.098412 110.226593,126.098404 
z"/>
<path fill="#7E0E0E" opacity="1.000000" stroke="none" 
	d="
M105.966537,127.947006 
	C106.390244,128.173630 106.813957,128.400238 107.456467,128.721954 
	C106.708076,129.309998 105.740891,129.802948 104.417542,130.245026 
	C104.041771,129.699387 104.022171,129.204636 104.329300,128.343674 
	C105.092865,127.967308 105.529701,127.957153 105.966537,127.947006 
z"/>
<path fill="#861816" opacity="1.000000" stroke="none" 
	d="
M167.412903,102.007019 
	C161.958878,101.484192 156.911148,100.832603 151.842529,100.488747 
	C149.445053,100.326103 147.007614,100.752480 144.229523,100.559052 
	C143.975021,99.598656 144.079269,98.991196 144.183502,98.383743 
	C144.516846,98.196564 144.850174,98.009384 145.452637,97.723267 
	C149.658844,98.286186 153.595947,98.948036 157.754944,99.360817 
	C162.005234,99.125771 166.033600,99.139786 170.494324,99.482285 
	C170.947052,100.018364 170.967468,100.225960 170.987854,100.433556 
	C170.992050,100.780426 170.996246,101.127296 170.997498,101.734314 
	C169.933243,101.997803 168.871948,102.001144 167.412903,102.007019 
z"/>
<path fill="#8A2626" opacity="1.000000" stroke="none" 
	d="
M181.354523,92.439850 
	C179.316788,93.664124 176.017273,89.497780 174.612549,94.539780 
	C172.787735,93.834984 171.293869,92.902908 169.799988,91.970825 
	C170.887680,90.596169 171.975388,89.221512 173.369949,87.718750 
	C176.000977,88.709854 178.325134,89.829056 181.055374,90.983307 
	C181.427002,91.397270 181.392563,91.776192 181.354523,92.439850 
z"/>
<path fill="#A25350" opacity="1.000000" stroke="none" 
	d="
M169.597198,92.197952 
	C171.293869,92.902908 172.787735,93.834984 174.560303,94.928177 
	C174.790131,95.322739 174.741272,95.556183 174.493713,96.089020 
	C172.661484,95.067299 171.027939,93.746185 169.597198,92.197952 
z"/>
<path fill="#A25350" opacity="1.000000" stroke="none" 
	d="
M171.283325,100.280807 
	C170.967468,100.225960 170.947052,100.018364 170.956238,99.499786 
	C171.483612,98.822495 171.981384,98.456161 172.802780,98.163635 
	C172.610519,98.867645 172.094650,99.497856 171.283325,100.280807 
z"/>
<path fill="#8A2626" opacity="1.000000" stroke="none" 
	d="
M176.500397,86.676308 
	C176.471634,86.731186 176.420700,86.666832 176.434235,86.683525 
	C176.447769,86.700218 176.529144,86.621429 176.500397,86.676308 
z"/>
<path fill="#A25350" opacity="1.000000" stroke="none" 
	d="
M252.260788,133.216644 
	C256.869934,133.521835 261.738800,134.110703 266.809448,135.034027 
	C262.180969,134.745743 257.350739,134.123016 252.260788,133.216644 
z"/>
<path fill="#831210" opacity="1.000000" stroke="none" 
	d="
M312.857178,142.487305 
	C313.338104,142.175369 314.046478,142.184662 314.234436,142.502090 
	C316.004211,145.490891 314.996185,157.025787 312.417908,159.940430 
	C312.312103,154.326385 312.577637,148.638931 312.857178,142.487305 
z"/>
<path fill="#7E0E0E" opacity="1.000000" stroke="none" 
	d="
M50.574497,43.576656 
	C50.496021,43.634941 50.468418,43.412609 50.468418,43.412609 
	C50.468418,43.412609 50.652973,43.518372 50.574497,43.576656 
z"/>
<path fill="#8A2626" opacity="1.000000" stroke="none" 
	d="
M271.980225,90.982376 
	C269.809326,90.832283 267.642487,90.692345 265.212158,90.249817 
	C264.933289,89.609238 265.003387,89.290031 265.226593,88.753525 
	C266.607544,88.445084 267.920868,88.372719 269.631500,88.281609 
	C270.480743,88.453819 270.932648,88.644775 271.679077,89.204666 
	C271.973419,90.041832 271.973267,90.510048 271.973145,90.978271 
	C271.973145,90.978271 271.984283,90.992523 271.980225,90.982376 
z"/>
<path fill="#890707" opacity="1.000000" stroke="none" 
	d="
M272.348755,90.979393 
	C271.973267,90.510048 271.973419,90.041832 271.941101,89.222351 
	C272.052338,88.588943 272.249756,88.351479 272.700500,88.038177 
	C273.360992,87.939407 273.821930,87.961166 274.628143,87.973999 
	C274.223755,88.970215 273.474091,89.975365 272.348755,90.979393 
z"/>
<path fill="#D9AFAC" opacity="1.000000" stroke="none" 
	d="
M185.962067,113.602509 
	C186.351120,113.252144 186.815430,113.161545 187.637360,113.043243 
	C187.985947,113.184334 187.976883,113.353127 187.979370,113.775269 
	C187.339706,113.973160 186.688507,113.917709 185.962067,113.602509 
z"/>
<path fill="#860A09" opacity="1.000000" stroke="none" 
	d="
M404.419495,115.121536 
	C403.420959,115.083115 402.607452,115.041023 401.389038,114.992752 
	C402.716003,114.323753 404.447845,113.660942 406.589539,113.001221 
	C406.424591,113.523361 405.849762,114.042419 405.123444,114.817673 
	C404.971954,115.073883 404.604492,115.117851 404.419495,115.121536 
z"/>
<path fill="#A25350" opacity="1.000000" stroke="none" 
	d="
M143.893860,98.270935 
	C144.079269,98.991196 143.975021,99.598656 143.803558,100.504692 
	C143.119141,100.809952 142.501923,100.816635 141.485199,100.548790 
	C140.618179,99.649185 140.150711,99.024109 139.683228,98.399033 
	C139.683228,98.399033 139.846802,98.193481 139.928741,98.090775 
	C140.759460,98.029526 141.508224,98.070992 142.628784,98.061111 
	C143.201782,98.059235 143.403015,98.108688 143.893860,98.270935 
z"/>
<path fill="#860A09" opacity="1.000000" stroke="none" 
	d="
M391.145142,115.114098 
	C390.025848,115.142052 389.339874,115.113976 388.308655,115.041718 
	C391.289520,111.344345 394.905762,112.811783 398.765747,114.696167 
	C396.528015,115.014931 394.053223,115.036499 391.145142,115.114098 
z"/>
<path fill="#980103" opacity="1.000000" stroke="none" 
	d="
M105.982803,127.582359 
	C105.529701,127.957153 105.092865,127.967308 104.327881,127.972374 
	C100.472359,126.401566 99.018501,124.702950 101.421410,120.501396 
	C103.896088,116.174347 105.296356,111.153854 106.662308,106.294968 
	C107.908180,101.863205 106.338158,98.008049 102.351898,95.035431 
	C101.986855,94.992981 101.908714,94.604317 101.904755,94.408112 
	C101.522530,91.980316 101.826416,89.260406 100.642014,87.605904 
	C96.596252,81.954338 94.084785,75.281052 87.880951,70.996864 
	C83.538383,67.998016 80.386909,63.274376 76.703476,59.321060 
	C77.041687,58.867447 77.379906,58.413837 77.718124,57.960224 
	C80.898430,58.967590 84.078728,59.974953 87.646721,60.978722 
	C88.034409,60.975132 88.513924,60.983788 88.809036,61.333313 
	C93.405960,64.121368 97.707764,66.559906 102.009567,68.998444 
	C102.473160,69.315941 102.936745,69.633430 103.746033,70.313026 
	C105.403801,71.444534 106.715881,72.213943 108.027954,72.983353 
	C108.512741,73.248322 108.997528,73.513290 109.776062,74.242226 
	C111.718323,75.802521 113.366844,76.898849 115.015358,77.995171 
	C115.333046,78.096588 115.590675,78.281616 115.897369,78.764893 
	C117.765579,80.650902 119.524666,82.322273 121.651840,83.995102 
	C122.600327,84.482056 123.180725,84.967560 123.883614,85.714401 
	C126.104820,88.292030 128.203537,90.608322 130.662415,92.957886 
	C131.680496,93.752884 132.338425,94.514610 133.005707,95.625313 
	C133.744354,97.216911 134.297791,98.615005 135.234344,99.674393 
	C138.696533,103.590652 138.577713,104.979233 134.435760,107.774254 
	C128.459152,111.807320 122.569122,115.970329 116.548462,119.935654 
	C114.232910,121.460701 111.576050,122.463875 109.238625,123.960808 
	C107.979797,124.766991 107.067635,126.114464 105.982803,127.582359 
z"/>
<path fill="#890707" opacity="1.000000" stroke="none" 
	d="
M101.969109,68.642029 
	C97.707764,66.559906 93.405960,64.121368 89.048782,61.337921 
	C93.305161,63.423878 97.616905,65.854752 101.969109,68.642029 
z"/>
<path fill="#890707" opacity="1.000000" stroke="none" 
	d="
M115.002930,77.627831 
	C113.366844,76.898849 111.718323,75.802521 110.030518,74.351181 
	C111.657654,75.084274 113.324081,76.172386 115.002930,77.627831 
z"/>
<path fill="#890707" opacity="1.000000" stroke="none" 
	d="
M107.973587,72.646881 
	C106.715881,72.213943 105.403801,71.444534 104.041138,70.336853 
	C105.300102,70.769203 106.609657,71.539810 107.973587,72.646881 
z"/>
<path fill="#861816" opacity="1.000000" stroke="none" 
	d="
M139.489075,98.357605 
	C140.150711,99.024109 140.618179,99.649185 141.173157,100.557350 
	C140.501526,100.245804 139.742371,99.651161 138.946030,98.732651 
	C138.908844,98.408783 139.294937,98.316177 139.489075,98.357605 
z"/>
<path fill="#7E0E0E" opacity="1.000000" stroke="none" 
	d="
M109.957870,126.078430 
	C110.226593,126.098412 110.093063,126.567070 110.010284,126.796768 
	C109.563599,126.877907 109.199699,126.729340 108.835800,126.580780 
	C109.120247,126.406677 109.404694,126.232567 109.957870,126.078430 
z"/>
</svg>