<svg version="1.1" id="Layer_1" xmlns="http://www.w3.org/2000/svg" xmlns:xlink="http://www.w3.org/1999/xlink" x="0px" y="0px"
	 width="100%" viewBox="0 0 551 186" enable-background="new 0 0 551 186" xml:space="preserve">
<path fill="#A3A940" opacity="1.000000" stroke="none" 
	d="
M419.000000,187.000000 
	C406.979095,187.000000 394.958221,187.000000 382.559692,186.673889 
	C390.231018,179.926102 396.578186,172.185303 401.032349,162.148956 
	C389.250610,156.471771 377.656982,150.885208 365.918396,145.228806 
	C364.531464,148.042694 363.529114,150.318634 362.323517,152.481262 
	C356.306885,163.274185 346.919220,167.821075 334.835815,166.643860 
	C323.651611,165.554245 316.683411,158.804352 313.136993,148.581497 
	C308.941437,136.487274 308.537048,124.043434 311.919159,111.708130 
	C314.358398,102.811668 319.534546,95.818405 328.564819,92.450798 
	C342.702667,87.178459 356.345856,93.002335 363.598145,107.904388 
	C365.629456,112.078346 367.325256,112.271614 371.057953,110.286392 
	C379.281036,105.913002 387.746552,101.996964 396.085785,97.839417 
	C397.647034,97.061058 399.080780,96.026962 400.796692,94.973831 
	C399.630005,92.892662 398.823395,91.264961 397.849487,89.744392 
	C378.702698,59.849915 333.921326,49.022655 302.424316,66.654823 
	C267.720886,86.081940 256.027496,136.138901 278.410248,170.647339 
	C282.240265,176.552216 287.435455,181.571564 292.000000,187.000000 
	C272.645782,187.000000 253.291550,187.000000 233.550446,186.672913 
	C244.650955,176.564316 250.407242,163.779648 250.722885,149.043900 
	C251.307953,121.730782 251.065659,94.400185 251.213806,67.077103 
	C251.228210,64.423691 250.344498,63.057343 247.481750,63.072525 
	C235.817810,63.134384 224.153107,63.138966 212.489258,63.068130 
	C209.572571,63.050415 208.760086,64.476303 208.830994,67.101341 
	C208.929947,70.764412 208.838074,74.432487 208.837540,78.098427 
	C208.834061,101.760490 208.883347,125.422707 208.807755,149.084534 
	C208.775894,159.054123 204.240250,164.953796 195.443954,166.968414 
	C181.337891,170.199142 171.739441,162.642776 171.721832,148.204010 
	C171.689331,121.542572 171.640991,94.880661 171.788437,68.219994 
	C171.809860,64.345215 170.761856,62.920849 166.748642,63.005486 
	C156.088806,63.230301 145.417435,63.241699 134.758331,62.999474 
	C130.660278,62.906345 129.296509,64.129196 129.325211,68.337700 
	C129.496857,93.498306 129.466553,118.660820 129.392914,143.822372 
	C129.344406,160.397568 132.657852,175.608994 146.000000,187.000000 
	C97.685822,187.000000 49.371639,187.000000 1.028728,187.000000 
	C1.028728,125.043732 1.028728,63.087444 1.028728,1.065580 
	C184.550156,1.065580 368.100342,1.065580 551.825256,1.065580 
	C551.825256,62.999622 551.825256,124.999756 551.825256,187.000000 
	C540.261353,187.000000 528.599365,187.000000 516.304199,186.555801 
	C515.671082,178.156311 515.671082,170.201004 515.671082,161.649429 
	C513.123779,161.649429 511.330688,161.649429 509.537628,161.649445 
	C495.221222,161.649536 480.900909,161.461578 466.590607,161.757034 
	C461.911407,161.853638 460.708893,160.356903 460.736755,155.832031 
	C460.916321,126.700897 460.757843,97.567764 460.905212,68.436272 
	C460.926025,64.320496 459.696472,62.913948 455.533020,63.011677 
	C445.217621,63.253811 434.884338,63.331902 424.575134,62.980648 
	C419.682068,62.813938 418.453308,64.443733 418.476227,69.193680 
	C418.657745,106.815018 418.571106,144.437622 418.593933,182.059830 
	C418.594940,183.706635 418.858673,185.353287 419.000000,187.000000 
M95.331482,85.154671 
	C95.123474,79.599007 94.549339,74.281242 89.347481,70.675797 
	C88.188965,69.872818 87.810509,67.924179 87.112587,66.483795 
	C86.624992,65.477509 86.204979,64.438484 85.438492,62.694382 
	C83.946960,66.001572 83.529167,69.150795 81.757317,70.442177 
	C76.323059,74.402832 75.605225,79.913094 75.167236,86.505325 
	C75.089630,86.981041 75.012032,87.456749 74.134575,88.035484 
	C70.556046,88.936218 66.977524,89.836960 63.199596,90.787888 
	C67.844040,100.087326 67.027504,108.339226 61.302536,116.730011 
	C77.793221,116.730011 93.231285,116.730011 109.828331,116.730011 
	C103.321220,108.160599 103.684525,99.643631 107.507004,90.569931 
	C103.436661,89.627892 99.754669,88.775726 95.841827,87.444008 
	C95.616714,86.967567 95.391609,86.491119 95.331482,85.154671 
z"/>
<path fill="#FEFEFC" opacity="1.000000" stroke="none" 
	d="
M146.468658,187.000000 
	C132.657852,175.608994 129.344406,160.397568 129.392914,143.822372 
	C129.466553,118.660820 129.496857,93.498306 129.325211,68.337700 
	C129.296509,64.129196 130.660278,62.906345 134.758331,62.999474 
	C145.417435,63.241699 156.088806,63.230301 166.748642,63.005486 
	C170.761856,62.920849 171.809860,64.345215 171.788437,68.219994 
	C171.640991,94.880661 171.689331,121.542572 171.721832,148.204010 
	C171.739441,162.642776 181.337891,170.199142 195.443954,166.968414 
	C204.240250,164.953796 208.775894,159.054123 208.807755,149.084534 
	C208.883347,125.422707 208.834061,101.760490 208.837540,78.098427 
	C208.838074,74.432487 208.929947,70.764412 208.830994,67.101341 
	C208.760086,64.476303 209.572571,63.050415 212.489258,63.068130 
	C224.153107,63.138966 235.817810,63.134384 247.481750,63.072525 
	C250.344498,63.057343 251.228210,64.423691 251.213806,67.077103 
	C251.065659,94.400185 251.307953,121.730782 250.722885,149.043900 
	C250.407242,163.779648 244.650955,176.564316 233.081787,186.672913 
	C204.312439,187.000000 175.624878,187.000000 146.468658,187.000000 
z"/>
<path fill="#FEFEFC" opacity="1.000000" stroke="none" 
	d="
M292.468658,187.000000 
	C287.435455,181.571564 282.240265,176.552216 278.410248,170.647339 
	C256.027496,136.138901 267.720886,86.081940 302.424316,66.654823 
	C333.921326,49.022655 378.702698,59.849915 397.849487,89.744392 
	C398.823395,91.264961 399.630005,92.892662 400.796692,94.973831 
	C399.080780,96.026962 397.647034,97.061058 396.085785,97.839417 
	C387.746552,101.996964 379.281036,105.913002 371.057953,110.286392 
	C367.325256,112.271614 365.629456,112.078346 363.598145,107.904388 
	C356.345856,93.002335 342.702667,87.178459 328.564819,92.450798 
	C319.534546,95.818405 314.358398,102.811668 311.919159,111.708130 
	C308.537048,124.043434 308.941437,136.487274 313.136993,148.581497 
	C316.683411,158.804352 323.651611,165.554245 334.835815,166.643860 
	C346.919220,167.821075 356.306885,163.274185 362.323517,152.481262 
	C363.529114,150.318634 364.531464,148.042694 365.918396,145.228806 
	C377.656982,150.885208 389.250610,156.471771 401.032349,162.148956 
	C396.578186,172.185303 390.231018,179.926102 382.091034,186.673889 
	C352.312439,187.000000 322.624878,187.000000 292.468658,187.000000 
z"/>
<path fill="#FEFEFE" opacity="1.000000" stroke="none" 
	d="
M419.468689,187.000000 
	C418.858673,185.353287 418.594940,183.706635 418.593933,182.059830 
	C418.571106,144.437622 418.657745,106.815018 418.476227,69.193680 
	C418.453308,64.443733 419.682068,62.813938 424.575134,62.980648 
	C434.884338,63.331902 445.217621,63.253811 455.533020,63.011677 
	C459.696472,62.913948 460.926025,64.320496 460.905212,68.436272 
	C460.757843,97.567764 460.916321,126.700897 460.736755,155.832031 
	C460.708893,160.356903 461.911407,161.853638 466.590607,161.757034 
	C480.900909,161.461578 495.221222,161.649536 509.537628,161.649445 
	C511.330688,161.649429 513.123779,161.649429 515.671082,161.649429 
	C515.671082,170.201004 515.671082,178.156311 515.835571,186.555801 
	C483.979095,187.000000 451.958221,187.000000 419.468689,187.000000 
z"/>
<path fill="#F9FAF3" opacity="1.000000" stroke="none" 
	d="
M96.072678,87.923569 
	C99.754669,88.775726 103.436661,89.627892 107.507004,90.569931 
	C103.684525,99.643631 103.321220,108.160599 109.828331,116.730011 
	C93.231285,116.730011 77.793221,116.730011 61.302536,116.730011 
	C67.027504,108.339226 67.844040,100.087326 63.199596,90.787888 
	C66.977524,89.836960 70.556046,88.936218 74.950317,88.031418 
	C82.534935,87.992760 89.303802,87.958168 96.072678,87.923569 
M83.066048,101.573593 
	C83.069824,102.902191 82.747993,104.344238 83.161201,105.530182 
	C83.658676,106.957985 84.780891,108.168098 85.632645,109.472458 
	C86.354256,108.235657 87.403946,107.074791 87.712364,105.742348 
	C88.077370,104.165459 88.027000,102.402290 87.751839,100.788910 
	C87.359589,98.488998 89.407394,94.910828 85.237160,94.574707 
	C84.680931,94.529877 83.797798,98.541039 83.066048,101.573593 
M95.135193,97.980141 
	C94.168648,96.759514 93.202103,95.538879 92.235550,94.318253 
	C91.591270,95.653915 90.529411,96.947800 90.390717,98.334045 
	C90.112633,101.113533 90.147072,103.965347 90.463005,106.740578 
	C90.571350,107.692299 91.905220,108.504517 92.679207,109.380478 
	C93.480194,108.522141 94.849579,107.737991 94.973167,106.791229 
	C95.312836,104.188919 95.129929,101.518387 95.135193,97.980141 
M68.596001,102.440468 
	C68.598808,103.600700 68.288002,104.884247 68.683510,105.890060 
	C69.182121,107.158096 70.257347,108.199394 71.083809,109.338516 
	C71.855400,108.277054 72.969734,107.313713 73.309021,106.128502 
	C73.704597,104.746696 73.704300,103.104744 73.372673,101.693932 
	C72.787659,99.205177 71.821281,96.806061 71.014549,94.369423 
	C70.208832,96.753181 69.403107,99.136932 68.596001,102.440468 
M97.941948,108.243973 
	C99.999229,110.141441 101.783379,109.731194 102.071152,107.039795 
	C102.434692,103.639725 102.247437,100.147385 101.923149,96.730408 
	C101.841194,95.866829 100.335533,95.138367 99.484100,94.347816 
	C98.909302,95.218178 97.892197,96.062057 97.838226,96.963608 
	C97.632454,100.400909 97.737213,103.856804 97.941948,108.243973 
M80.280975,102.522720 
	C80.268242,100.692238 80.491211,98.816345 80.150780,97.048988 
	C79.959007,96.053360 78.838402,95.236641 78.136215,94.339333 
	C77.423073,95.284256 76.180267,96.183914 76.094948,97.182480 
	C75.826790,100.321030 75.824715,103.511391 76.096024,106.649132 
	C76.176796,107.583351 77.497269,108.410378 78.249725,109.286514 
	C78.915588,108.346535 79.793777,107.485580 80.182076,106.442291 
	C80.509766,105.561821 80.269035,104.469795 80.280975,102.522720 
z"/>
<path fill="#FAFBF5" opacity="1.000000" stroke="none" 
	d="
M75.308014,85.794891 
	C75.605225,79.913094 76.323059,74.402832 81.757317,70.442177 
	C83.529167,69.150795 83.946960,66.001572 85.438492,62.694382 
	C86.204979,64.438484 86.624992,65.477509 87.112587,66.483795 
	C87.810509,67.924179 88.188965,69.872818 89.347481,70.675797 
	C94.549339,74.281242 95.123474,79.599007 94.848625,85.520111 
	C88.024399,83.498322 81.666916,84.496597 75.308014,85.794891 
z"/>
<path fill="#D2D5A2" opacity="1.000000" stroke="none" 
	d="
M75.237625,86.150108 
	C81.666916,84.496597 88.024399,83.498322 94.766136,85.950119 
	C95.391609,86.491119 95.616714,86.967567 95.957253,87.683792 
	C89.303802,87.958168 82.534935,87.992760 75.350250,87.979904 
	C75.012032,87.456749 75.089630,86.981041 75.237625,86.150108 
z"/>
<path fill="#B2B861" opacity="1.000000" stroke="none" 
	d="
M83.066048,101.123741 
	C83.797798,98.541039 84.680931,94.529877 85.237160,94.574707 
	C89.407394,94.910828 87.359589,98.488998 87.751839,100.788910 
	C88.027000,102.402290 88.077370,104.165459 87.712364,105.742348 
	C87.403946,107.074791 86.354256,108.235657 85.632645,109.472458 
	C84.780891,108.168098 83.658676,106.957985 83.161201,105.530182 
	C82.747993,104.344238 83.069824,102.902191 83.066048,101.123741 
z"/>
<path fill="#B4BA64" opacity="1.000000" stroke="none" 
	d="
M95.144501,98.427498 
	C95.129929,101.518387 95.312836,104.188919 94.973167,106.791229 
	C94.849579,107.737991 93.480194,108.522141 92.679207,109.380478 
	C91.905220,108.504517 90.571350,107.692299 90.463005,106.740578 
	C90.147072,103.965347 90.112633,101.113533 90.390717,98.334045 
	C90.529411,96.947800 91.591270,95.653915 92.235550,94.318253 
	C93.202103,95.538879 94.168648,96.759514 95.144501,98.427498 
z"/>
<path fill="#AAB04F" opacity="1.000000" stroke="none" 
	d="
M68.596695,101.980576 
	C69.403107,99.136932 70.208832,96.753181 71.014549,94.369423 
	C71.821281,96.806061 72.787659,99.205177 73.372673,101.693932 
	C73.704300,103.104744 73.704597,104.746696 73.309021,106.128502 
	C72.969734,107.313713 71.855400,108.277054 71.083817,109.338516 
	C70.257347,108.199394 69.182121,107.158096 68.683510,105.890060 
	C68.288002,104.884247 68.598808,103.600700 68.596695,101.980576 
z"/>
<path fill="#A8AF4C" opacity="1.000000" stroke="none" 
	d="
M97.833954,107.774857 
	C97.737213,103.856804 97.632454,100.400909 97.838226,96.963608 
	C97.892197,96.062057 98.909302,95.218178 99.484100,94.347816 
	C100.335533,95.138367 101.841194,95.866829 101.923149,96.730408 
	C102.247437,100.147385 102.434692,103.639725 102.071152,107.039795 
	C101.783379,109.731194 99.999229,110.141441 97.833954,107.774857 
z"/>
<path fill="#ACB253" opacity="1.000000" stroke="none" 
	d="
M80.280434,102.997063 
	C80.269035,104.469795 80.509766,105.561821 80.182076,106.442291 
	C79.793777,107.485580 78.915588,108.346535 78.249725,109.286514 
	C77.497269,108.410378 76.176796,107.583351 76.096024,106.649132 
	C75.824715,103.511391 75.826790,100.321030 76.094948,97.182480 
	C76.180267,96.183914 77.423073,95.284256 78.136215,94.339333 
	C78.838402,95.236641 79.959007,96.053360 80.150780,97.048988 
	C80.491211,98.816345 80.268242,100.692238 80.280434,102.997063 
z"/>
</svg>